%TF.GenerationSoftware,KiCad,Pcbnew,7.0.7-7.0.7~ubuntu22.04.1*%
%TF.CreationDate,2023-10-27T18:02:48-05:00*%
%TF.ProjectId,PSU,5053552e-6b69-4636-9164-5f7063625858,V1.0*%
%TF.SameCoordinates,Original*%
%TF.FileFunction,Copper,L1,Top*%
%TF.FilePolarity,Positive*%
%FSLAX46Y46*%
G04 Gerber Fmt 4.6, Leading zero omitted, Abs format (unit mm)*
G04 Created by KiCad (PCBNEW 7.0.7-7.0.7~ubuntu22.04.1) date 2023-10-27 18:02:48*
%MOMM*%
%LPD*%
G01*
G04 APERTURE LIST*
G04 Aperture macros list*
%AMRoundRect*
0 Rectangle with rounded corners*
0 $1 Rounding radius*
0 $2 $3 $4 $5 $6 $7 $8 $9 X,Y pos of 4 corners*
0 Add a 4 corners polygon primitive as box body*
4,1,4,$2,$3,$4,$5,$6,$7,$8,$9,$2,$3,0*
0 Add four circle primitives for the rounded corners*
1,1,$1+$1,$2,$3*
1,1,$1+$1,$4,$5*
1,1,$1+$1,$6,$7*
1,1,$1+$1,$8,$9*
0 Add four rect primitives between the rounded corners*
20,1,$1+$1,$2,$3,$4,$5,0*
20,1,$1+$1,$4,$5,$6,$7,0*
20,1,$1+$1,$6,$7,$8,$9,0*
20,1,$1+$1,$8,$9,$2,$3,0*%
G04 Aperture macros list end*
%TA.AperFunction,ComponentPad*%
%ADD10C,1.524000*%
%TD*%
%TA.AperFunction,ComponentPad*%
%ADD11C,1.803400*%
%TD*%
%TA.AperFunction,ComponentPad*%
%ADD12R,2.000000X1.905000*%
%TD*%
%TA.AperFunction,ComponentPad*%
%ADD13O,2.000000X1.905000*%
%TD*%
%TA.AperFunction,ComponentPad*%
%ADD14R,2.000000X2.000000*%
%TD*%
%TA.AperFunction,ComponentPad*%
%ADD15C,2.000000*%
%TD*%
%TA.AperFunction,SMDPad,CuDef*%
%ADD16RoundRect,0.250000X-0.925000X0.412500X-0.925000X-0.412500X0.925000X-0.412500X0.925000X0.412500X0*%
%TD*%
%TA.AperFunction,ComponentPad*%
%ADD17R,2.400000X2.400000*%
%TD*%
%TA.AperFunction,ComponentPad*%
%ADD18C,2.400000*%
%TD*%
%TA.AperFunction,ComponentPad*%
%ADD19R,2.200000X2.200000*%
%TD*%
%TA.AperFunction,ComponentPad*%
%ADD20O,2.200000X2.200000*%
%TD*%
%TA.AperFunction,ComponentPad*%
%ADD21O,1.500000X3.200000*%
%TD*%
%TA.AperFunction,ComponentPad*%
%ADD22O,3.200000X1.500000*%
%TD*%
%TA.AperFunction,SMDPad,CuDef*%
%ADD23RoundRect,0.250000X0.925000X-0.412500X0.925000X0.412500X-0.925000X0.412500X-0.925000X-0.412500X0*%
%TD*%
%TA.AperFunction,ViaPad*%
%ADD24C,0.800000*%
%TD*%
%TA.AperFunction,Conductor*%
%ADD25C,0.500000*%
%TD*%
G04 APERTURE END LIST*
D10*
%TO.P,J2,3*%
%TO.N,GND*%
X197289553Y-108448601D03*
D11*
%TO.P,J2,1,1*%
%TO.N,+12V*%
X197289553Y-98288601D03*
%TO.P,J2,2,2*%
%TO.N,-12V*%
X197289553Y-103288601D03*
%TD*%
D12*
%TO.P,U2,1,GND*%
%TO.N,GND*%
X184100373Y-109590025D03*
D13*
%TO.P,U2,2,VI*%
%TO.N,Net-(D3-A)*%
X184100373Y-112130025D03*
%TO.P,U2,3,VO*%
%TO.N,-12V*%
X184100373Y-114670025D03*
%TD*%
D14*
%TO.P,C6,1*%
%TO.N,Net-(D1-K)*%
X167640000Y-96440000D03*
D15*
%TO.P,C6,2*%
%TO.N,GND*%
X167640000Y-91440000D03*
%TD*%
D14*
%TO.P,C5,1*%
%TO.N,GND*%
X167640000Y-106680000D03*
D15*
%TO.P,C5,2*%
%TO.N,Net-(D3-A)*%
X167640000Y-111680000D03*
%TD*%
D16*
%TO.P,C10,1*%
%TO.N,+12V*%
X190641402Y-88755818D03*
%TO.P,C10,2*%
%TO.N,GND*%
X190641402Y-91830818D03*
%TD*%
%TO.P,C7,1*%
%TO.N,GND*%
X179371029Y-109902702D03*
%TO.P,C7,2*%
%TO.N,Net-(D3-A)*%
X179371029Y-112977702D03*
%TD*%
D17*
%TO.P,C4,1*%
%TO.N,GND*%
X152400000Y-106600000D03*
D18*
%TO.P,C4,2*%
%TO.N,Net-(D3-A)*%
X152400000Y-114100000D03*
%TD*%
D16*
%TO.P,C8,1*%
%TO.N,GND*%
X190641402Y-109767567D03*
%TO.P,C8,2*%
%TO.N,-12V*%
X190641402Y-112842567D03*
%TD*%
D19*
%TO.P,D1,1,K*%
%TO.N,Net-(D1-K)*%
X189950721Y-101520000D03*
D20*
%TO.P,D1,2,A*%
%TO.N,+12V*%
X179790721Y-101520000D03*
%TD*%
D21*
%TO.P,J1,6*%
%TO.N,Net-(D2-A)*%
X117943600Y-95514483D03*
%TO.N,GND*%
X104316122Y-95513631D03*
D22*
%TO.P,J1,7*%
%TO.N,N/C*%
X115473355Y-100575055D03*
%TD*%
D17*
%TO.P,C2,1*%
%TO.N,Net-(D1-K)*%
X152400000Y-96440000D03*
D18*
%TO.P,C2,2*%
%TO.N,GND*%
X152400000Y-88940000D03*
%TD*%
D17*
%TO.P,C3,1*%
%TO.N,GND*%
X134620000Y-106600000D03*
D18*
%TO.P,C3,2*%
%TO.N,Net-(D3-A)*%
X134620000Y-114100000D03*
%TD*%
D17*
%TO.P,C1,1*%
%TO.N,Net-(D1-K)*%
X134620000Y-96440000D03*
D18*
%TO.P,C1,2*%
%TO.N,GND*%
X134620000Y-88940000D03*
%TD*%
D12*
%TO.P,LM7812,1,IN*%
%TO.N,Net-(D1-K)*%
X185420000Y-93809770D03*
D13*
%TO.P,LM7812,2,GND*%
%TO.N,GND*%
X185420000Y-91269770D03*
%TO.P,LM7812,3,OUT*%
%TO.N,+12V*%
X185420000Y-88729770D03*
%TD*%
D19*
%TO.P,D2,1,K*%
%TO.N,Net-(D1-K)*%
X121920000Y-88820000D03*
D20*
%TO.P,D2,2,A*%
%TO.N,Net-(D2-A)*%
X121920000Y-98980000D03*
%TD*%
D23*
%TO.P,C9,1*%
%TO.N,Net-(D1-K)*%
X179291379Y-91854981D03*
%TO.P,C9,2*%
%TO.N,GND*%
X179291379Y-88779981D03*
%TD*%
D19*
%TO.P,D3,1,K*%
%TO.N,Net-(D2-A)*%
X121920000Y-106600000D03*
D20*
%TO.P,D3,2,A*%
%TO.N,Net-(D3-A)*%
X121920000Y-116760000D03*
%TD*%
D24*
%TO.N,+12V*%
X179832000Y-98552000D03*
X174752000Y-90932000D03*
%TD*%
D25*
%TO.N,-12V*%
X190641402Y-112842567D02*
X190641402Y-112917402D01*
X194564000Y-113792000D02*
X194564000Y-106014154D01*
X190641402Y-112917402D02*
X192532000Y-114808000D01*
X192532000Y-114808000D02*
X193548000Y-114808000D01*
X193548000Y-114808000D02*
X194564000Y-113792000D01*
X194564000Y-106014154D02*
X197289553Y-103288601D01*
%TO.N,+12V*%
X174752000Y-90932000D02*
X174752000Y-88396729D01*
X174752000Y-88396729D02*
X177330927Y-85817802D01*
X177330927Y-85817802D02*
X182410927Y-85817802D01*
X182410927Y-85817802D02*
X185322895Y-88729770D01*
X185322895Y-88729770D02*
X185420000Y-88729770D01*
X179790721Y-101520000D02*
X179790721Y-98593279D01*
X179790721Y-98593279D02*
X179832000Y-98552000D01*
%TO.N,Net-(D1-K)*%
X189950721Y-96058008D02*
X189950721Y-101520000D01*
X167640000Y-96440000D02*
X174706360Y-96440000D01*
X134620000Y-96440000D02*
X152400000Y-96440000D01*
X181246168Y-93809770D02*
X185420000Y-93809770D01*
X185420000Y-93809770D02*
X187862895Y-93809770D01*
X190030927Y-95977802D02*
X189950721Y-96058008D01*
X127000000Y-88820000D02*
X134620000Y-96440000D01*
X179291379Y-91854981D02*
X181246168Y-93809770D01*
X121920000Y-88820000D02*
X127000000Y-88820000D01*
X187862895Y-93809770D02*
X190030927Y-95977802D01*
X152400000Y-96440000D02*
X167640000Y-96440000D01*
X174706360Y-96440000D02*
X179291379Y-91854981D01*
%TO.N,GND*%
X179291379Y-88779981D02*
X179713558Y-88357802D01*
X190080354Y-91269770D02*
X185420000Y-91269770D01*
X190641402Y-109767567D02*
X190463860Y-109590025D01*
X179713558Y-88357802D02*
X182410927Y-88357802D01*
X182410927Y-88357802D02*
X185322895Y-91269770D01*
X190463860Y-109590025D02*
X184100373Y-109590025D01*
X183787696Y-109902702D02*
X184100373Y-109590025D01*
X185322895Y-91269770D02*
X185420000Y-91269770D01*
X190641402Y-91830818D02*
X190080354Y-91269770D01*
X179371029Y-109902702D02*
X183787696Y-109902702D01*
%TO.N,Net-(D3-A)*%
X180218706Y-112130025D02*
X184100373Y-112130025D01*
X152400000Y-114100000D02*
X165220000Y-114100000D01*
X167640000Y-111680000D02*
X168937702Y-112977702D01*
X165220000Y-114100000D02*
X167640000Y-111680000D01*
X168937702Y-112977702D02*
X179371029Y-112977702D01*
X131960000Y-116760000D02*
X134620000Y-114100000D01*
X121920000Y-116760000D02*
X131960000Y-116760000D01*
X134620000Y-114100000D02*
X152400000Y-114100000D01*
X179371029Y-112977702D02*
X180218706Y-112130025D01*
%TO.N,-12V*%
X188813944Y-114670025D02*
X190641402Y-112842567D01*
X184100373Y-114670025D02*
X188813944Y-114670025D01*
%TO.N,+12V*%
X190641402Y-88755818D02*
X192968943Y-88755818D01*
X185420000Y-88729770D02*
X190615354Y-88729770D01*
X192968943Y-88755818D02*
X195110927Y-90897802D01*
X190615354Y-88729770D02*
X190641402Y-88755818D01*
X195110927Y-90897802D02*
X195110927Y-96109975D01*
X195110927Y-96109975D02*
X197289553Y-98288601D01*
%TO.N,Net-(D2-A)*%
X121920000Y-98980000D02*
X121920000Y-106600000D01*
X117943600Y-95514483D02*
X118454483Y-95514483D01*
X118454483Y-95514483D02*
X121920000Y-98980000D01*
%TD*%
M02*
