%TF.GenerationSoftware,KiCad,Pcbnew,7.0.7-7.0.7~ubuntu22.04.1*%
%TF.CreationDate,2023-10-27T18:02:48-05:00*%
%TF.ProjectId,PSU,5053552e-6b69-4636-9164-5f7063625858,V1.0*%
%TF.SameCoordinates,Original*%
%TF.FileFunction,Copper,L2,Bot*%
%TF.FilePolarity,Positive*%
%FSLAX46Y46*%
G04 Gerber Fmt 4.6, Leading zero omitted, Abs format (unit mm)*
G04 Created by KiCad (PCBNEW 7.0.7-7.0.7~ubuntu22.04.1) date 2023-10-27 18:02:48*
%MOMM*%
%LPD*%
G01*
G04 APERTURE LIST*
%TA.AperFunction,ComponentPad*%
%ADD10C,1.524000*%
%TD*%
%TA.AperFunction,ComponentPad*%
%ADD11C,1.803400*%
%TD*%
%TA.AperFunction,ComponentPad*%
%ADD12R,2.000000X1.905000*%
%TD*%
%TA.AperFunction,ComponentPad*%
%ADD13O,2.000000X1.905000*%
%TD*%
%TA.AperFunction,ComponentPad*%
%ADD14R,2.000000X2.000000*%
%TD*%
%TA.AperFunction,ComponentPad*%
%ADD15C,2.000000*%
%TD*%
%TA.AperFunction,ComponentPad*%
%ADD16R,2.400000X2.400000*%
%TD*%
%TA.AperFunction,ComponentPad*%
%ADD17C,2.400000*%
%TD*%
%TA.AperFunction,ComponentPad*%
%ADD18R,2.200000X2.200000*%
%TD*%
%TA.AperFunction,ComponentPad*%
%ADD19O,2.200000X2.200000*%
%TD*%
%TA.AperFunction,ComponentPad*%
%ADD20O,1.500000X3.200000*%
%TD*%
%TA.AperFunction,ComponentPad*%
%ADD21O,3.200000X1.500000*%
%TD*%
%TA.AperFunction,ViaPad*%
%ADD22C,0.800000*%
%TD*%
%TA.AperFunction,Conductor*%
%ADD23C,0.500000*%
%TD*%
G04 APERTURE END LIST*
D10*
%TO.P,J2,3*%
%TO.N,GND*%
X197289553Y-108448601D03*
D11*
%TO.P,J2,1,1*%
%TO.N,+12V*%
X197289553Y-98288601D03*
%TO.P,J2,2,2*%
%TO.N,-12V*%
X197289553Y-103288601D03*
%TD*%
D12*
%TO.P,U2,1,GND*%
%TO.N,GND*%
X184100373Y-109590025D03*
D13*
%TO.P,U2,2,VI*%
%TO.N,Net-(D3-A)*%
X184100373Y-112130025D03*
%TO.P,U2,3,VO*%
%TO.N,-12V*%
X184100373Y-114670025D03*
%TD*%
D14*
%TO.P,C6,1*%
%TO.N,Net-(D1-K)*%
X167640000Y-96440000D03*
D15*
%TO.P,C6,2*%
%TO.N,GND*%
X167640000Y-91440000D03*
%TD*%
D14*
%TO.P,C5,1*%
%TO.N,GND*%
X167640000Y-106680000D03*
D15*
%TO.P,C5,2*%
%TO.N,Net-(D3-A)*%
X167640000Y-111680000D03*
%TD*%
D16*
%TO.P,C4,1*%
%TO.N,GND*%
X152400000Y-106600000D03*
D17*
%TO.P,C4,2*%
%TO.N,Net-(D3-A)*%
X152400000Y-114100000D03*
%TD*%
D18*
%TO.P,D1,1,K*%
%TO.N,Net-(D1-K)*%
X189950721Y-101520000D03*
D19*
%TO.P,D1,2,A*%
%TO.N,+12V*%
X179790721Y-101520000D03*
%TD*%
D20*
%TO.P,J1,6*%
%TO.N,Net-(D2-A)*%
X117943600Y-95514483D03*
%TO.N,GND*%
X104316122Y-95513631D03*
D21*
%TO.P,J1,7*%
%TO.N,N/C*%
X115473355Y-100575055D03*
%TD*%
D16*
%TO.P,C2,1*%
%TO.N,Net-(D1-K)*%
X152400000Y-96440000D03*
D17*
%TO.P,C2,2*%
%TO.N,GND*%
X152400000Y-88940000D03*
%TD*%
D16*
%TO.P,C3,1*%
%TO.N,GND*%
X134620000Y-106600000D03*
D17*
%TO.P,C3,2*%
%TO.N,Net-(D3-A)*%
X134620000Y-114100000D03*
%TD*%
D16*
%TO.P,C1,1*%
%TO.N,Net-(D1-K)*%
X134620000Y-96440000D03*
D17*
%TO.P,C1,2*%
%TO.N,GND*%
X134620000Y-88940000D03*
%TD*%
D12*
%TO.P,LM7812,1,IN*%
%TO.N,Net-(D1-K)*%
X185420000Y-93809770D03*
D13*
%TO.P,LM7812,2,GND*%
%TO.N,GND*%
X185420000Y-91269770D03*
%TO.P,LM7812,3,OUT*%
%TO.N,+12V*%
X185420000Y-88729770D03*
%TD*%
D18*
%TO.P,D2,1,K*%
%TO.N,Net-(D1-K)*%
X121920000Y-88820000D03*
D19*
%TO.P,D2,2,A*%
%TO.N,Net-(D2-A)*%
X121920000Y-98980000D03*
%TD*%
D18*
%TO.P,D3,1,K*%
%TO.N,Net-(D2-A)*%
X121920000Y-106600000D03*
D19*
%TO.P,D3,2,A*%
%TO.N,Net-(D3-A)*%
X121920000Y-116760000D03*
%TD*%
D22*
%TO.N,+12V*%
X179832000Y-98552000D03*
X174752000Y-90932000D03*
%TD*%
D23*
%TO.N,+12V*%
X174752000Y-93472000D02*
X174752000Y-90932000D01*
X179832000Y-98552000D02*
X174752000Y-93472000D01*
%TD*%
%TA.AperFunction,Conductor*%
%TO.N,GND*%
G36*
X200926871Y-78670485D02*
G01*
X201137581Y-78678764D01*
X201142032Y-78679102D01*
X201396138Y-78707734D01*
X201621099Y-78734360D01*
X201625303Y-78735006D01*
X201873490Y-78781965D01*
X202098986Y-78826819D01*
X202102853Y-78827721D01*
X202266591Y-78871595D01*
X202345597Y-78892765D01*
X202434742Y-78917906D01*
X202568278Y-78955567D01*
X202571911Y-78956713D01*
X202808529Y-79039510D01*
X203026363Y-79119873D01*
X203029650Y-79121195D01*
X203218711Y-79203682D01*
X203259126Y-79221315D01*
X203470484Y-79318752D01*
X203473428Y-79320207D01*
X203694672Y-79437138D01*
X203898027Y-79551023D01*
X203900662Y-79552587D01*
X204112450Y-79685662D01*
X204112474Y-79685677D01*
X204306495Y-79815318D01*
X204308867Y-79816984D01*
X204510107Y-79965507D01*
X204608293Y-80042910D01*
X204694573Y-80110927D01*
X204885198Y-80274973D01*
X205057731Y-80434461D01*
X205235538Y-80612268D01*
X205395025Y-80784800D01*
X205559055Y-80975407D01*
X205559073Y-80975427D01*
X205704492Y-81159892D01*
X205853014Y-81361131D01*
X205854680Y-81363503D01*
X205984322Y-81557525D01*
X206117390Y-81769302D01*
X206118988Y-81771993D01*
X206232869Y-81975343D01*
X206267324Y-82040534D01*
X206349777Y-82196542D01*
X206351259Y-82199540D01*
X206448684Y-82410873D01*
X206548796Y-82640333D01*
X206550138Y-82643667D01*
X206630490Y-82861472D01*
X206713285Y-83098086D01*
X206714436Y-83101735D01*
X206777234Y-83324402D01*
X206842270Y-83567118D01*
X206843191Y-83571071D01*
X206888033Y-83796504D01*
X206902920Y-83875182D01*
X206934989Y-84044677D01*
X206935640Y-84048917D01*
X206962283Y-84274014D01*
X206990894Y-84527951D01*
X206991237Y-84532460D01*
X206999516Y-84743185D01*
X207009500Y-85010000D01*
X207009500Y-116760000D01*
X206999516Y-117026814D01*
X206991237Y-117237538D01*
X206990895Y-117242047D01*
X206962283Y-117495985D01*
X206935640Y-117721081D01*
X206934989Y-117725321D01*
X206895865Y-117932100D01*
X206888068Y-117973317D01*
X206888043Y-117973447D01*
X206843191Y-118198927D01*
X206842270Y-118202880D01*
X206777234Y-118445597D01*
X206714436Y-118668263D01*
X206713285Y-118671911D01*
X206630490Y-118908527D01*
X206550138Y-119126331D01*
X206548796Y-119129665D01*
X206448684Y-119359127D01*
X206351259Y-119570458D01*
X206349769Y-119573472D01*
X206232869Y-119794656D01*
X206118988Y-119998005D01*
X206117390Y-120000696D01*
X205984322Y-120212474D01*
X205854680Y-120406495D01*
X205853014Y-120408867D01*
X205704492Y-120610107D01*
X205559073Y-120794572D01*
X205395026Y-120985198D01*
X205235538Y-121157731D01*
X205057731Y-121335538D01*
X204885198Y-121495026D01*
X204694572Y-121659073D01*
X204510107Y-121804492D01*
X204308867Y-121953014D01*
X204306495Y-121954680D01*
X204112474Y-122084322D01*
X203900696Y-122217390D01*
X203898005Y-122218988D01*
X203694656Y-122332869D01*
X203473472Y-122449769D01*
X203470458Y-122451259D01*
X203259127Y-122548684D01*
X203029665Y-122648796D01*
X203026331Y-122650138D01*
X202808527Y-122730490D01*
X202571911Y-122813285D01*
X202568263Y-122814436D01*
X202345597Y-122877234D01*
X202102880Y-122942270D01*
X202098927Y-122943191D01*
X201921689Y-122978446D01*
X201873437Y-122988044D01*
X201846574Y-122993127D01*
X201625321Y-123034989D01*
X201621081Y-123035640D01*
X201395985Y-123062283D01*
X201142047Y-123090895D01*
X201137538Y-123091237D01*
X200926814Y-123099516D01*
X200660000Y-123109500D01*
X105410000Y-123109500D01*
X105143185Y-123099516D01*
X104932460Y-123091237D01*
X104927951Y-123090894D01*
X104674014Y-123062283D01*
X104448917Y-123035640D01*
X104444677Y-123034989D01*
X104196599Y-122988051D01*
X104094231Y-122967689D01*
X103971071Y-122943191D01*
X103967118Y-122942270D01*
X103724402Y-122877234D01*
X103501735Y-122814436D01*
X103498086Y-122813285D01*
X103261472Y-122730490D01*
X103134301Y-122683574D01*
X103043660Y-122650135D01*
X103040333Y-122648796D01*
X102810873Y-122548684D01*
X102664309Y-122481118D01*
X102599530Y-122451254D01*
X102596542Y-122449777D01*
X102480250Y-122388314D01*
X102375343Y-122332869D01*
X102171993Y-122218988D01*
X102169302Y-122217390D01*
X101957525Y-122084322D01*
X101763503Y-121954680D01*
X101761131Y-121953014D01*
X101559892Y-121804492D01*
X101433287Y-121704685D01*
X101375421Y-121659067D01*
X101184801Y-121495026D01*
X101012268Y-121335538D01*
X100834461Y-121157731D01*
X100674973Y-120985198D01*
X100510927Y-120794572D01*
X100442910Y-120708293D01*
X100365507Y-120610107D01*
X100216984Y-120408867D01*
X100215318Y-120406495D01*
X100085677Y-120212474D01*
X99952587Y-120000662D01*
X99951023Y-119998027D01*
X99837130Y-119794656D01*
X99802676Y-119729466D01*
X99720207Y-119573428D01*
X99718752Y-119570484D01*
X99621315Y-119359126D01*
X99596082Y-119301291D01*
X99521195Y-119129650D01*
X99519873Y-119126363D01*
X99439503Y-118908510D01*
X99356714Y-118671912D01*
X99355567Y-118668278D01*
X99292765Y-118445597D01*
X99255746Y-118307441D01*
X99227721Y-118202853D01*
X99226819Y-118198986D01*
X99181957Y-117973447D01*
X99135006Y-117725303D01*
X99134360Y-117721099D01*
X99107734Y-117496138D01*
X99079102Y-117242032D01*
X99078764Y-117237581D01*
X99070479Y-117026710D01*
X99069154Y-116991308D01*
X99063035Y-116827763D01*
X103555787Y-116827763D01*
X103585413Y-117097013D01*
X103585415Y-117097024D01*
X103653926Y-117359082D01*
X103653928Y-117359088D01*
X103759870Y-117608390D01*
X103900979Y-117839605D01*
X103900986Y-117839615D01*
X104074253Y-118047819D01*
X104074259Y-118047824D01*
X104179240Y-118141887D01*
X104275998Y-118228582D01*
X104501910Y-118378044D01*
X104747176Y-118493020D01*
X104747183Y-118493022D01*
X104747185Y-118493023D01*
X105006557Y-118571057D01*
X105006564Y-118571058D01*
X105006569Y-118571060D01*
X105274561Y-118610500D01*
X105274566Y-118610500D01*
X105477636Y-118610500D01*
X105529133Y-118606730D01*
X105680156Y-118595677D01*
X105792758Y-118570593D01*
X105944546Y-118536782D01*
X105944548Y-118536781D01*
X105944553Y-118536780D01*
X106197558Y-118440014D01*
X106433777Y-118307441D01*
X106648177Y-118141888D01*
X106836186Y-117946881D01*
X106993799Y-117726579D01*
X107067787Y-117582669D01*
X107117649Y-117485690D01*
X107117651Y-117485684D01*
X107117656Y-117485675D01*
X107205118Y-117229305D01*
X107254319Y-116962933D01*
X107261735Y-116760006D01*
X120514700Y-116760006D01*
X120533864Y-116991297D01*
X120533866Y-116991308D01*
X120590842Y-117216300D01*
X120684075Y-117428848D01*
X120811016Y-117623147D01*
X120811019Y-117623151D01*
X120811021Y-117623153D01*
X120968216Y-117793913D01*
X120968219Y-117793915D01*
X120968222Y-117793918D01*
X121151365Y-117936464D01*
X121151371Y-117936468D01*
X121151374Y-117936470D01*
X121355497Y-118046936D01*
X121469487Y-118086068D01*
X121575015Y-118122297D01*
X121575017Y-118122297D01*
X121575019Y-118122298D01*
X121803951Y-118160500D01*
X121803952Y-118160500D01*
X122036048Y-118160500D01*
X122036049Y-118160500D01*
X122264981Y-118122298D01*
X122484503Y-118046936D01*
X122688626Y-117936470D01*
X122871784Y-117793913D01*
X123028979Y-117623153D01*
X123155924Y-117428849D01*
X123249157Y-117216300D01*
X123306134Y-116991305D01*
X123319685Y-116827765D01*
X123319685Y-116827763D01*
X198805787Y-116827763D01*
X198835413Y-117097013D01*
X198835415Y-117097024D01*
X198903926Y-117359082D01*
X198903928Y-117359088D01*
X199009870Y-117608390D01*
X199150979Y-117839605D01*
X199150986Y-117839615D01*
X199324253Y-118047819D01*
X199324259Y-118047824D01*
X199429240Y-118141887D01*
X199525998Y-118228582D01*
X199751910Y-118378044D01*
X199997176Y-118493020D01*
X199997183Y-118493022D01*
X199997185Y-118493023D01*
X200256557Y-118571057D01*
X200256564Y-118571058D01*
X200256569Y-118571060D01*
X200524561Y-118610500D01*
X200524566Y-118610500D01*
X200727636Y-118610500D01*
X200779133Y-118606730D01*
X200930156Y-118595677D01*
X201042758Y-118570593D01*
X201194546Y-118536782D01*
X201194548Y-118536781D01*
X201194553Y-118536780D01*
X201447558Y-118440014D01*
X201683777Y-118307441D01*
X201898177Y-118141888D01*
X202086186Y-117946881D01*
X202243799Y-117726579D01*
X202317787Y-117582669D01*
X202367649Y-117485690D01*
X202367651Y-117485684D01*
X202367656Y-117485675D01*
X202455118Y-117229305D01*
X202504319Y-116962933D01*
X202514212Y-116692235D01*
X202484586Y-116422982D01*
X202416072Y-116160912D01*
X202310130Y-115911610D01*
X202169018Y-115680390D01*
X202167845Y-115678981D01*
X201995746Y-115472180D01*
X201995740Y-115472175D01*
X201794002Y-115291418D01*
X201568092Y-115141957D01*
X201568090Y-115141956D01*
X201322824Y-115026980D01*
X201322819Y-115026978D01*
X201322814Y-115026976D01*
X201063442Y-114948942D01*
X201063428Y-114948939D01*
X200947791Y-114931921D01*
X200795439Y-114909500D01*
X200592369Y-114909500D01*
X200592364Y-114909500D01*
X200389844Y-114924323D01*
X200389831Y-114924325D01*
X200125453Y-114983217D01*
X200125446Y-114983220D01*
X199872439Y-115079987D01*
X199636226Y-115212557D01*
X199421822Y-115378112D01*
X199233822Y-115573109D01*
X199233816Y-115573116D01*
X199076202Y-115793419D01*
X199076199Y-115793424D01*
X198952350Y-116034309D01*
X198952343Y-116034327D01*
X198864884Y-116290685D01*
X198864881Y-116290699D01*
X198815681Y-116557068D01*
X198815680Y-116557075D01*
X198805787Y-116827763D01*
X123319685Y-116827763D01*
X123325300Y-116760006D01*
X123325300Y-116759993D01*
X123306135Y-116528702D01*
X123306133Y-116528691D01*
X123249157Y-116303699D01*
X123155924Y-116091151D01*
X123028983Y-115896852D01*
X123028980Y-115896849D01*
X123028979Y-115896847D01*
X122871784Y-115726087D01*
X122871779Y-115726083D01*
X122871777Y-115726081D01*
X122688634Y-115583535D01*
X122688628Y-115583531D01*
X122484504Y-115473064D01*
X122484495Y-115473061D01*
X122264984Y-115397702D01*
X122093281Y-115369050D01*
X122036049Y-115359500D01*
X121803951Y-115359500D01*
X121758164Y-115367140D01*
X121575015Y-115397702D01*
X121355504Y-115473061D01*
X121355495Y-115473064D01*
X121151371Y-115583531D01*
X121151365Y-115583535D01*
X120968222Y-115726081D01*
X120968219Y-115726084D01*
X120968216Y-115726086D01*
X120968216Y-115726087D01*
X120909267Y-115790121D01*
X120811016Y-115896852D01*
X120684075Y-116091151D01*
X120590842Y-116303699D01*
X120533866Y-116528691D01*
X120533864Y-116528702D01*
X120514700Y-116759993D01*
X120514700Y-116760006D01*
X107261735Y-116760006D01*
X107264212Y-116692235D01*
X107234586Y-116422982D01*
X107166072Y-116160912D01*
X107060130Y-115911610D01*
X106919018Y-115680390D01*
X106917845Y-115678981D01*
X106745746Y-115472180D01*
X106745740Y-115472175D01*
X106544002Y-115291418D01*
X106318092Y-115141957D01*
X106318090Y-115141956D01*
X106072824Y-115026980D01*
X106072819Y-115026978D01*
X106072814Y-115026976D01*
X105813442Y-114948942D01*
X105813428Y-114948939D01*
X105697791Y-114931921D01*
X105545439Y-114909500D01*
X105342369Y-114909500D01*
X105342364Y-114909500D01*
X105139844Y-114924323D01*
X105139831Y-114924325D01*
X104875453Y-114983217D01*
X104875446Y-114983220D01*
X104622439Y-115079987D01*
X104386226Y-115212557D01*
X104171822Y-115378112D01*
X103983822Y-115573109D01*
X103983816Y-115573116D01*
X103826202Y-115793419D01*
X103826199Y-115793424D01*
X103702350Y-116034309D01*
X103702343Y-116034327D01*
X103614884Y-116290685D01*
X103614881Y-116290699D01*
X103565681Y-116557068D01*
X103565680Y-116557075D01*
X103555787Y-116827763D01*
X99063035Y-116827763D01*
X99060500Y-116760000D01*
X99060500Y-116759500D01*
X99060500Y-114100005D01*
X133114357Y-114100005D01*
X133134890Y-114347812D01*
X133134892Y-114347824D01*
X133195936Y-114588881D01*
X133295826Y-114816606D01*
X133431833Y-115024782D01*
X133463128Y-115058777D01*
X133600256Y-115207738D01*
X133796491Y-115360474D01*
X133796493Y-115360475D01*
X134004533Y-115473061D01*
X134015190Y-115478828D01*
X134250386Y-115559571D01*
X134495665Y-115600500D01*
X134744335Y-115600500D01*
X134989614Y-115559571D01*
X135224810Y-115478828D01*
X135443509Y-115360474D01*
X135639744Y-115207738D01*
X135808164Y-115024785D01*
X135944173Y-114816607D01*
X136044063Y-114588881D01*
X136105108Y-114347821D01*
X136105109Y-114347812D01*
X136125643Y-114100005D01*
X150894357Y-114100005D01*
X150914890Y-114347812D01*
X150914892Y-114347824D01*
X150975936Y-114588881D01*
X151075826Y-114816606D01*
X151211833Y-115024782D01*
X151243128Y-115058777D01*
X151380256Y-115207738D01*
X151576491Y-115360474D01*
X151576493Y-115360475D01*
X151784533Y-115473061D01*
X151795190Y-115478828D01*
X152030386Y-115559571D01*
X152275665Y-115600500D01*
X152524335Y-115600500D01*
X152769614Y-115559571D01*
X153004810Y-115478828D01*
X153223509Y-115360474D01*
X153419744Y-115207738D01*
X153588164Y-115024785D01*
X153724173Y-114816607D01*
X153824063Y-114588881D01*
X153885108Y-114347821D01*
X153885109Y-114347812D01*
X153905643Y-114100005D01*
X153905643Y-114099994D01*
X153885109Y-113852187D01*
X153885107Y-113852175D01*
X153824063Y-113611118D01*
X153724173Y-113383393D01*
X153588166Y-113175217D01*
X153562941Y-113147815D01*
X153419744Y-112992262D01*
X153223509Y-112839526D01*
X153223507Y-112839525D01*
X153223506Y-112839524D01*
X153004811Y-112721172D01*
X153004802Y-112721169D01*
X152769616Y-112640429D01*
X152524335Y-112599500D01*
X152275665Y-112599500D01*
X152030383Y-112640429D01*
X151795197Y-112721169D01*
X151795188Y-112721172D01*
X151576493Y-112839524D01*
X151380257Y-112992261D01*
X151211833Y-113175217D01*
X151075826Y-113383393D01*
X150975936Y-113611118D01*
X150914892Y-113852175D01*
X150914890Y-113852187D01*
X150894357Y-114099994D01*
X150894357Y-114100005D01*
X136125643Y-114100005D01*
X136125643Y-114099994D01*
X136105109Y-113852187D01*
X136105107Y-113852175D01*
X136044063Y-113611118D01*
X135944173Y-113383393D01*
X135808166Y-113175217D01*
X135782941Y-113147815D01*
X135639744Y-112992262D01*
X135443509Y-112839526D01*
X135443507Y-112839525D01*
X135443506Y-112839524D01*
X135224811Y-112721172D01*
X135224802Y-112721169D01*
X134989616Y-112640429D01*
X134744335Y-112599500D01*
X134495665Y-112599500D01*
X134250383Y-112640429D01*
X134015197Y-112721169D01*
X134015188Y-112721172D01*
X133796493Y-112839524D01*
X133600257Y-112992261D01*
X133431833Y-113175217D01*
X133295826Y-113383393D01*
X133195936Y-113611118D01*
X133134892Y-113852175D01*
X133134890Y-113852187D01*
X133114357Y-114099994D01*
X133114357Y-114100005D01*
X99060500Y-114100005D01*
X99060500Y-111680001D01*
X166334532Y-111680001D01*
X166354364Y-111906686D01*
X166354366Y-111906697D01*
X166413258Y-112126488D01*
X166413261Y-112126497D01*
X166509431Y-112332732D01*
X166509432Y-112332734D01*
X166639954Y-112519141D01*
X166800858Y-112680045D01*
X166800861Y-112680047D01*
X166987266Y-112810568D01*
X167193504Y-112906739D01*
X167193509Y-112906740D01*
X167193511Y-112906741D01*
X167246415Y-112920916D01*
X167413308Y-112965635D01*
X167575230Y-112979801D01*
X167639998Y-112985468D01*
X167640000Y-112985468D01*
X167640002Y-112985468D01*
X167696673Y-112980509D01*
X167866692Y-112965635D01*
X168086496Y-112906739D01*
X168292734Y-112810568D01*
X168479139Y-112680047D01*
X168640047Y-112519139D01*
X168770568Y-112332734D01*
X168866739Y-112126496D01*
X168925635Y-111906692D01*
X168945468Y-111680000D01*
X168925635Y-111453308D01*
X168874006Y-111260626D01*
X168866741Y-111233511D01*
X168866738Y-111233502D01*
X168770568Y-111027266D01*
X168640047Y-110840861D01*
X168640045Y-110840858D01*
X168479141Y-110679954D01*
X168351199Y-110590369D01*
X182600373Y-110590369D01*
X182606774Y-110649897D01*
X182606776Y-110649904D01*
X182657018Y-110784611D01*
X182657022Y-110784618D01*
X182743182Y-110899712D01*
X182743185Y-110899715D01*
X182858279Y-110985875D01*
X182858286Y-110985879D01*
X182992993Y-111036121D01*
X182993000Y-111036123D01*
X183052528Y-111042524D01*
X183052545Y-111042525D01*
X183068967Y-111042525D01*
X183136006Y-111062210D01*
X183181761Y-111115014D01*
X183191705Y-111184172D01*
X183162680Y-111247728D01*
X183158594Y-111252217D01*
X183069277Y-111345635D01*
X182945027Y-111533866D01*
X182856382Y-111741263D01*
X182856379Y-111741272D01*
X182806194Y-111961147D01*
X182806194Y-111961154D01*
X182801145Y-112073586D01*
X182796075Y-112186468D01*
X182815888Y-112332734D01*
X182826351Y-112409975D01*
X182896046Y-112624475D01*
X182996188Y-112810568D01*
X183002926Y-112823089D01*
X183143550Y-112999427D01*
X183143554Y-112999430D01*
X183143557Y-112999434D01*
X183313394Y-113147815D01*
X183313394Y-113147816D01*
X183313398Y-113147818D01*
X183313401Y-113147821D01*
X183507019Y-113263502D01*
X183560619Y-113283618D01*
X183616465Y-113325601D01*
X183640749Y-113391115D01*
X183625758Y-113459358D01*
X183576253Y-113508663D01*
X183570849Y-113511430D01*
X183407611Y-113590041D01*
X183407605Y-113590044D01*
X183225148Y-113722607D01*
X183225140Y-113722613D01*
X183069279Y-113885631D01*
X182945027Y-114073866D01*
X182856382Y-114281263D01*
X182856379Y-114281272D01*
X182806194Y-114501147D01*
X182806194Y-114501154D01*
X182801145Y-114613586D01*
X182796075Y-114726468D01*
X182826211Y-114948942D01*
X182826351Y-114949975D01*
X182896046Y-115164475D01*
X183001519Y-115360475D01*
X183002926Y-115363089D01*
X183143550Y-115539427D01*
X183143554Y-115539430D01*
X183143557Y-115539434D01*
X183313394Y-115687815D01*
X183313394Y-115687816D01*
X183313398Y-115687818D01*
X183313401Y-115687821D01*
X183507019Y-115803502D01*
X183718181Y-115882752D01*
X183718181Y-115882753D01*
X183940098Y-115923025D01*
X183940101Y-115923025D01*
X184204143Y-115923025D01*
X184204149Y-115923025D01*
X184362059Y-115908812D01*
X184372510Y-115907872D01*
X184589913Y-115847873D01*
X184589918Y-115847870D01*
X184589925Y-115847869D01*
X184793134Y-115750009D01*
X184826069Y-115726081D01*
X184975597Y-115617442D01*
X184975603Y-115617438D01*
X185030931Y-115559570D01*
X185113639Y-115473064D01*
X185131468Y-115454416D01*
X185255719Y-115266183D01*
X185344364Y-115058788D01*
X185394552Y-114838899D01*
X185404671Y-114613582D01*
X185374396Y-114390079D01*
X185304699Y-114175574D01*
X185197820Y-113976961D01*
X185057196Y-113800623D01*
X185057190Y-113800618D01*
X185057188Y-113800615D01*
X184887351Y-113652234D01*
X184887351Y-113652233D01*
X184887346Y-113652230D01*
X184887345Y-113652229D01*
X184693727Y-113536548D01*
X184640125Y-113516430D01*
X184584279Y-113474447D01*
X184559996Y-113408933D01*
X184574987Y-113340690D01*
X184624493Y-113291386D01*
X184629878Y-113288628D01*
X184793134Y-113210009D01*
X184975603Y-113077438D01*
X185131468Y-112914416D01*
X185255719Y-112726183D01*
X185344364Y-112518788D01*
X185394552Y-112298899D01*
X185404671Y-112073582D01*
X185374396Y-111850079D01*
X185304699Y-111635574D01*
X185197820Y-111436961D01*
X185057196Y-111260623D01*
X185056371Y-111259902D01*
X185056102Y-111259480D01*
X185053344Y-111256595D01*
X185053916Y-111256047D01*
X185018840Y-111200969D01*
X185019128Y-111131100D01*
X185057145Y-111072478D01*
X185120819Y-111043715D01*
X185137960Y-111042525D01*
X185148201Y-111042525D01*
X185148217Y-111042524D01*
X185207745Y-111036123D01*
X185207752Y-111036121D01*
X185342459Y-110985879D01*
X185342466Y-110985875D01*
X185457560Y-110899715D01*
X185457563Y-110899712D01*
X185543723Y-110784618D01*
X185543727Y-110784611D01*
X185593969Y-110649904D01*
X185593971Y-110649897D01*
X185600372Y-110590369D01*
X185600373Y-110590352D01*
X185600373Y-109840025D01*
X184814031Y-109840025D01*
X184746992Y-109820340D01*
X184701237Y-109767536D01*
X184691092Y-109699841D01*
X184705550Y-109590025D01*
X184691092Y-109480208D01*
X184701857Y-109411176D01*
X184748237Y-109358920D01*
X184814031Y-109340025D01*
X185600372Y-109340025D01*
X185600373Y-108589697D01*
X185600372Y-108589680D01*
X185593971Y-108530152D01*
X185593969Y-108530145D01*
X185563555Y-108448601D01*
X196022732Y-108448601D01*
X196041977Y-108668577D01*
X196041979Y-108668587D01*
X196099128Y-108881871D01*
X196099133Y-108881885D01*
X196192452Y-109082008D01*
X196192453Y-109082010D01*
X196237811Y-109146788D01*
X196680602Y-108703996D01*
X196741925Y-108670511D01*
X196811616Y-108675495D01*
X196867550Y-108717366D01*
X196872598Y-108724637D01*
X196907791Y-108779398D01*
X197023155Y-108879360D01*
X197020846Y-108882023D01*
X197055559Y-108922100D01*
X197065488Y-108991261D01*
X197036451Y-109054811D01*
X197030435Y-109061270D01*
X196591364Y-109500341D01*
X196591364Y-109500342D01*
X196656135Y-109545695D01*
X196656145Y-109545701D01*
X196856268Y-109639020D01*
X196856282Y-109639025D01*
X197069566Y-109696174D01*
X197069576Y-109696176D01*
X197289552Y-109715422D01*
X197289554Y-109715422D01*
X197509529Y-109696176D01*
X197509539Y-109696174D01*
X197722823Y-109639025D01*
X197722837Y-109639020D01*
X197922961Y-109545701D01*
X197922973Y-109545694D01*
X197987739Y-109500343D01*
X197987740Y-109500341D01*
X197548669Y-109061270D01*
X197515184Y-108999947D01*
X197520168Y-108930255D01*
X197557194Y-108880794D01*
X197555951Y-108879360D01*
X197562653Y-108873553D01*
X197671314Y-108779399D01*
X197706508Y-108724635D01*
X197759307Y-108678884D01*
X197828466Y-108668939D01*
X197892022Y-108697963D01*
X197898502Y-108703996D01*
X198341294Y-109146788D01*
X198341295Y-109146787D01*
X198386646Y-109082021D01*
X198386653Y-109082009D01*
X198479972Y-108881885D01*
X198479977Y-108881871D01*
X198537126Y-108668587D01*
X198537128Y-108668577D01*
X198556374Y-108448601D01*
X198556374Y-108448600D01*
X198537128Y-108228624D01*
X198537126Y-108228614D01*
X198479977Y-108015330D01*
X198479973Y-108015321D01*
X198386651Y-107815191D01*
X198341293Y-107750412D01*
X197898502Y-108193204D01*
X197837179Y-108226689D01*
X197767487Y-108221705D01*
X197711554Y-108179833D01*
X197706505Y-108172562D01*
X197674881Y-108123354D01*
X197671314Y-108117803D01*
X197562653Y-108023649D01*
X197562652Y-108023648D01*
X197555951Y-108017842D01*
X197558251Y-108015186D01*
X197523513Y-107975029D01*
X197513627Y-107905862D01*
X197542705Y-107842330D01*
X197548669Y-107835930D01*
X197987740Y-107396859D01*
X197922962Y-107351501D01*
X197922960Y-107351500D01*
X197722837Y-107258181D01*
X197722823Y-107258176D01*
X197509539Y-107201027D01*
X197509529Y-107201025D01*
X197289554Y-107181780D01*
X197289552Y-107181780D01*
X197069576Y-107201025D01*
X197069566Y-107201027D01*
X196856282Y-107258176D01*
X196856273Y-107258180D01*
X196656139Y-107351504D01*
X196591365Y-107396858D01*
X196591364Y-107396859D01*
X197030436Y-107835931D01*
X197063921Y-107897254D01*
X197058937Y-107966946D01*
X197021910Y-108016406D01*
X197023155Y-108017842D01*
X196907790Y-108117804D01*
X196872599Y-108172563D01*
X196819795Y-108218318D01*
X196750637Y-108228262D01*
X196687081Y-108199237D01*
X196680603Y-108193205D01*
X196237811Y-107750412D01*
X196237810Y-107750413D01*
X196192456Y-107815187D01*
X196099132Y-108015321D01*
X196099128Y-108015330D01*
X196041979Y-108228614D01*
X196041977Y-108228624D01*
X196022732Y-108448600D01*
X196022732Y-108448601D01*
X185563555Y-108448601D01*
X185543727Y-108395438D01*
X185543723Y-108395431D01*
X185457563Y-108280337D01*
X185457560Y-108280334D01*
X185342466Y-108194174D01*
X185342459Y-108194170D01*
X185207752Y-108143928D01*
X185207745Y-108143926D01*
X185148217Y-108137525D01*
X184350373Y-108137525D01*
X184350373Y-108876366D01*
X184330688Y-108943405D01*
X184277884Y-108989160D01*
X184210188Y-108999305D01*
X184139706Y-108990026D01*
X184139701Y-108990025D01*
X184139696Y-108990025D01*
X184061050Y-108990025D01*
X184061044Y-108990025D01*
X184061039Y-108990026D01*
X183990558Y-108999305D01*
X183921523Y-108988539D01*
X183869267Y-108942159D01*
X183850373Y-108876366D01*
X183850373Y-108137525D01*
X183052528Y-108137525D01*
X182993000Y-108143926D01*
X182992993Y-108143928D01*
X182858286Y-108194170D01*
X182858279Y-108194174D01*
X182743185Y-108280334D01*
X182743182Y-108280337D01*
X182657022Y-108395431D01*
X182657018Y-108395438D01*
X182606776Y-108530145D01*
X182606774Y-108530152D01*
X182600373Y-108589680D01*
X182600373Y-109340025D01*
X183386715Y-109340025D01*
X183453754Y-109359710D01*
X183499509Y-109412514D01*
X183509653Y-109480208D01*
X183495196Y-109590025D01*
X183509653Y-109699841D01*
X183498889Y-109768874D01*
X183452509Y-109821130D01*
X183386715Y-109840025D01*
X182600373Y-109840025D01*
X182600373Y-110590369D01*
X168351199Y-110590369D01*
X168292734Y-110549432D01*
X168292732Y-110549431D01*
X168086497Y-110453261D01*
X168086488Y-110453258D01*
X167866697Y-110394366D01*
X167866693Y-110394365D01*
X167866692Y-110394365D01*
X167866691Y-110394364D01*
X167866686Y-110394364D01*
X167640002Y-110374532D01*
X167639998Y-110374532D01*
X167413313Y-110394364D01*
X167413302Y-110394366D01*
X167193511Y-110453258D01*
X167193502Y-110453261D01*
X166987267Y-110549431D01*
X166987265Y-110549432D01*
X166800858Y-110679954D01*
X166639954Y-110840858D01*
X166509432Y-111027265D01*
X166509431Y-111027267D01*
X166413261Y-111233502D01*
X166413258Y-111233511D01*
X166354366Y-111453302D01*
X166354364Y-111453313D01*
X166334532Y-111679998D01*
X166334532Y-111680001D01*
X99060500Y-111680001D01*
X99060500Y-107744856D01*
X120519500Y-107744856D01*
X120519502Y-107744882D01*
X120522413Y-107769987D01*
X120522415Y-107769991D01*
X120567793Y-107872764D01*
X120567794Y-107872765D01*
X120647235Y-107952206D01*
X120750009Y-107997585D01*
X120775135Y-108000500D01*
X123064864Y-108000499D01*
X123064879Y-108000497D01*
X123064882Y-108000497D01*
X123089987Y-107997586D01*
X123089988Y-107997585D01*
X123089991Y-107997585D01*
X123192765Y-107952206D01*
X123272206Y-107872765D01*
X123283210Y-107847844D01*
X132920000Y-107847844D01*
X132926401Y-107907372D01*
X132926403Y-107907379D01*
X132976645Y-108042086D01*
X132976649Y-108042093D01*
X133062809Y-108157187D01*
X133062812Y-108157190D01*
X133177906Y-108243350D01*
X133177913Y-108243354D01*
X133312620Y-108293596D01*
X133312627Y-108293598D01*
X133372155Y-108299999D01*
X133372172Y-108300000D01*
X134370000Y-108300000D01*
X134370000Y-107313658D01*
X134389685Y-107246619D01*
X134442489Y-107200864D01*
X134510184Y-107190719D01*
X134580677Y-107200000D01*
X134580684Y-107200000D01*
X134659316Y-107200000D01*
X134659323Y-107200000D01*
X134729815Y-107190719D01*
X134798849Y-107201484D01*
X134851105Y-107247864D01*
X134870000Y-107313658D01*
X134870000Y-108300000D01*
X135867828Y-108300000D01*
X135867844Y-108299999D01*
X135927372Y-108293598D01*
X135927379Y-108293596D01*
X136062086Y-108243354D01*
X136062093Y-108243350D01*
X136177187Y-108157190D01*
X136177190Y-108157187D01*
X136263350Y-108042093D01*
X136263354Y-108042086D01*
X136313596Y-107907379D01*
X136313598Y-107907372D01*
X136319999Y-107847844D01*
X150700000Y-107847844D01*
X150706401Y-107907372D01*
X150706403Y-107907379D01*
X150756645Y-108042086D01*
X150756649Y-108042093D01*
X150842809Y-108157187D01*
X150842812Y-108157190D01*
X150957906Y-108243350D01*
X150957913Y-108243354D01*
X151092620Y-108293596D01*
X151092627Y-108293598D01*
X151152155Y-108299999D01*
X151152172Y-108300000D01*
X152150000Y-108300000D01*
X152150000Y-107313658D01*
X152169685Y-107246619D01*
X152222489Y-107200864D01*
X152290184Y-107190719D01*
X152360677Y-107200000D01*
X152360684Y-107200000D01*
X152439316Y-107200000D01*
X152439323Y-107200000D01*
X152509815Y-107190719D01*
X152578849Y-107201484D01*
X152631105Y-107247864D01*
X152650000Y-107313658D01*
X152650000Y-108300000D01*
X153647828Y-108300000D01*
X153647844Y-108299999D01*
X153707372Y-108293598D01*
X153707379Y-108293596D01*
X153842086Y-108243354D01*
X153842093Y-108243350D01*
X153957187Y-108157190D01*
X153957190Y-108157187D01*
X154043350Y-108042093D01*
X154043354Y-108042086D01*
X154093596Y-107907379D01*
X154093598Y-107907372D01*
X154099999Y-107847844D01*
X154100000Y-107847827D01*
X154100000Y-107727844D01*
X166140000Y-107727844D01*
X166146401Y-107787372D01*
X166146403Y-107787379D01*
X166196645Y-107922086D01*
X166196649Y-107922093D01*
X166282809Y-108037187D01*
X166282812Y-108037190D01*
X166397906Y-108123350D01*
X166397913Y-108123354D01*
X166532620Y-108173596D01*
X166532627Y-108173598D01*
X166592155Y-108179999D01*
X166592172Y-108180000D01*
X167390000Y-108180000D01*
X167390000Y-107292301D01*
X167409685Y-107225262D01*
X167462489Y-107179507D01*
X167531647Y-107169563D01*
X167604237Y-107180000D01*
X167604238Y-107180000D01*
X167675762Y-107180000D01*
X167675763Y-107180000D01*
X167748352Y-107169563D01*
X167817510Y-107179507D01*
X167870314Y-107225261D01*
X167889999Y-107292301D01*
X167889999Y-108179999D01*
X167890001Y-108180000D01*
X168687828Y-108180000D01*
X168687844Y-108179999D01*
X168747372Y-108173598D01*
X168747379Y-108173596D01*
X168882086Y-108123354D01*
X168882093Y-108123350D01*
X168997187Y-108037190D01*
X168997190Y-108037187D01*
X169083350Y-107922093D01*
X169083354Y-107922086D01*
X169133596Y-107787379D01*
X169133598Y-107787372D01*
X169139999Y-107727844D01*
X169140000Y-107727827D01*
X169140000Y-106930000D01*
X168253347Y-106930000D01*
X168186308Y-106910315D01*
X168140553Y-106857511D01*
X168130609Y-106788353D01*
X168134369Y-106771067D01*
X168136143Y-106765022D01*
X168140000Y-106751889D01*
X168140000Y-106608111D01*
X168134368Y-106588933D01*
X168134370Y-106519064D01*
X168172145Y-106460286D01*
X168235701Y-106431262D01*
X168253347Y-106430000D01*
X169140000Y-106430000D01*
X169140000Y-105632172D01*
X169139999Y-105632155D01*
X169133598Y-105572627D01*
X169133596Y-105572620D01*
X169083354Y-105437913D01*
X169083350Y-105437906D01*
X168997190Y-105322812D01*
X168997187Y-105322809D01*
X168882093Y-105236649D01*
X168882086Y-105236645D01*
X168747379Y-105186403D01*
X168747372Y-105186401D01*
X168687844Y-105180000D01*
X167889999Y-105180000D01*
X167889999Y-106067698D01*
X167870314Y-106134738D01*
X167817510Y-106180492D01*
X167748353Y-106190436D01*
X167675764Y-106180000D01*
X167675763Y-106180000D01*
X167604237Y-106180000D01*
X167604233Y-106180000D01*
X167531645Y-106190436D01*
X167462487Y-106180492D01*
X167409684Y-106134736D01*
X167390000Y-106067698D01*
X167390000Y-105180000D01*
X166592155Y-105180000D01*
X166532627Y-105186401D01*
X166532620Y-105186403D01*
X166397913Y-105236645D01*
X166397906Y-105236649D01*
X166282812Y-105322809D01*
X166282809Y-105322812D01*
X166196649Y-105437906D01*
X166196645Y-105437913D01*
X166146403Y-105572620D01*
X166146401Y-105572627D01*
X166140000Y-105632155D01*
X166140000Y-106430000D01*
X167026653Y-106430000D01*
X167093692Y-106449685D01*
X167139447Y-106502489D01*
X167149391Y-106571647D01*
X167145631Y-106588933D01*
X167140000Y-106608111D01*
X167140000Y-106751889D01*
X167143856Y-106765022D01*
X167145631Y-106771067D01*
X167145630Y-106840936D01*
X167107855Y-106899714D01*
X167044299Y-106928738D01*
X167026653Y-106930000D01*
X166140000Y-106930000D01*
X166140000Y-107727844D01*
X154100000Y-107727844D01*
X154100000Y-106850000D01*
X153113658Y-106850000D01*
X153046619Y-106830315D01*
X153000864Y-106777511D01*
X152990719Y-106709816D01*
X153005177Y-106600000D01*
X152990719Y-106490183D01*
X153001484Y-106421151D01*
X153047864Y-106368895D01*
X153113658Y-106350000D01*
X154100000Y-106350000D01*
X154100000Y-105352172D01*
X154099999Y-105352155D01*
X154093598Y-105292627D01*
X154093596Y-105292620D01*
X154043354Y-105157913D01*
X154043350Y-105157906D01*
X153957190Y-105042812D01*
X153957187Y-105042809D01*
X153842093Y-104956649D01*
X153842086Y-104956645D01*
X153707379Y-104906403D01*
X153707372Y-104906401D01*
X153647844Y-104900000D01*
X152650000Y-104900000D01*
X152650000Y-105886341D01*
X152630315Y-105953380D01*
X152577511Y-105999135D01*
X152509815Y-106009280D01*
X152439333Y-106000001D01*
X152439328Y-106000000D01*
X152439323Y-106000000D01*
X152360677Y-106000000D01*
X152360671Y-106000000D01*
X152360666Y-106000001D01*
X152290185Y-106009280D01*
X152221150Y-105998514D01*
X152168894Y-105952134D01*
X152150000Y-105886341D01*
X152150000Y-104900000D01*
X151152155Y-104900000D01*
X151092627Y-104906401D01*
X151092620Y-104906403D01*
X150957913Y-104956645D01*
X150957906Y-104956649D01*
X150842812Y-105042809D01*
X150842809Y-105042812D01*
X150756649Y-105157906D01*
X150756645Y-105157913D01*
X150706403Y-105292620D01*
X150706401Y-105292627D01*
X150700000Y-105352155D01*
X150700000Y-106350000D01*
X151686342Y-106350000D01*
X151753381Y-106369685D01*
X151799136Y-106422489D01*
X151809280Y-106490183D01*
X151794823Y-106600000D01*
X151809280Y-106709816D01*
X151798516Y-106778849D01*
X151752136Y-106831105D01*
X151686342Y-106850000D01*
X150700000Y-106850000D01*
X150700000Y-107847844D01*
X136319999Y-107847844D01*
X136320000Y-107847827D01*
X136320000Y-106850000D01*
X135333658Y-106850000D01*
X135266619Y-106830315D01*
X135220864Y-106777511D01*
X135210719Y-106709816D01*
X135225177Y-106600000D01*
X135210719Y-106490183D01*
X135221484Y-106421151D01*
X135267864Y-106368895D01*
X135333658Y-106350000D01*
X136320000Y-106350000D01*
X136320000Y-105352172D01*
X136319999Y-105352155D01*
X136313598Y-105292627D01*
X136313596Y-105292620D01*
X136263354Y-105157913D01*
X136263350Y-105157906D01*
X136177190Y-105042812D01*
X136177187Y-105042809D01*
X136062093Y-104956649D01*
X136062086Y-104956645D01*
X135927379Y-104906403D01*
X135927372Y-104906401D01*
X135867844Y-104900000D01*
X134870000Y-104900000D01*
X134870000Y-105886341D01*
X134850315Y-105953380D01*
X134797511Y-105999135D01*
X134729815Y-106009280D01*
X134659333Y-106000001D01*
X134659328Y-106000000D01*
X134659323Y-106000000D01*
X134580677Y-106000000D01*
X134580671Y-106000000D01*
X134580666Y-106000001D01*
X134510185Y-106009280D01*
X134441150Y-105998514D01*
X134388894Y-105952134D01*
X134370000Y-105886341D01*
X134370000Y-104900000D01*
X133372155Y-104900000D01*
X133312627Y-104906401D01*
X133312620Y-104906403D01*
X133177913Y-104956645D01*
X133177906Y-104956649D01*
X133062812Y-105042809D01*
X133062809Y-105042812D01*
X132976649Y-105157906D01*
X132976645Y-105157913D01*
X132926403Y-105292620D01*
X132926401Y-105292627D01*
X132920000Y-105352155D01*
X132920000Y-106350000D01*
X133906342Y-106350000D01*
X133973381Y-106369685D01*
X134019136Y-106422489D01*
X134029280Y-106490183D01*
X134014823Y-106600000D01*
X134029280Y-106709816D01*
X134018516Y-106778849D01*
X133972136Y-106831105D01*
X133906342Y-106850000D01*
X132920000Y-106850000D01*
X132920000Y-107847844D01*
X123283210Y-107847844D01*
X123317585Y-107769991D01*
X123320500Y-107744865D01*
X123320499Y-105455136D01*
X123318501Y-105437906D01*
X123317586Y-105430012D01*
X123317585Y-105430010D01*
X123317585Y-105430009D01*
X123272206Y-105327235D01*
X123192765Y-105247794D01*
X123167515Y-105236645D01*
X123089992Y-105202415D01*
X123064865Y-105199500D01*
X120775143Y-105199500D01*
X120775117Y-105199502D01*
X120750012Y-105202413D01*
X120750008Y-105202415D01*
X120647235Y-105247793D01*
X120567794Y-105327234D01*
X120522415Y-105430006D01*
X120522415Y-105430008D01*
X120519500Y-105455131D01*
X120519500Y-107744856D01*
X99060500Y-107744856D01*
X99060500Y-103288601D01*
X196082203Y-103288601D01*
X196102759Y-103510450D01*
X196163732Y-103724743D01*
X196163739Y-103724761D01*
X196263041Y-103924187D01*
X196397312Y-104101989D01*
X196561961Y-104252086D01*
X196561963Y-104252088D01*
X196751387Y-104369374D01*
X196751388Y-104369374D01*
X196751391Y-104369376D01*
X196959146Y-104449861D01*
X197178153Y-104490801D01*
X197178155Y-104490801D01*
X197400951Y-104490801D01*
X197400953Y-104490801D01*
X197619960Y-104449861D01*
X197827715Y-104369376D01*
X198017144Y-104252087D01*
X198181795Y-104101987D01*
X198316063Y-103924189D01*
X198415373Y-103724746D01*
X198476346Y-103510451D01*
X198496903Y-103288601D01*
X198476346Y-103066751D01*
X198415373Y-102852456D01*
X198415369Y-102852448D01*
X198415366Y-102852440D01*
X198316064Y-102653014D01*
X198181793Y-102475212D01*
X198017144Y-102325115D01*
X198017142Y-102325113D01*
X197827718Y-102207827D01*
X197827712Y-102207825D01*
X197619960Y-102127341D01*
X197400953Y-102086401D01*
X197178153Y-102086401D01*
X196959146Y-102127341D01*
X196827764Y-102178238D01*
X196751393Y-102207825D01*
X196751387Y-102207827D01*
X196561963Y-102325113D01*
X196561961Y-102325115D01*
X196397312Y-102475212D01*
X196263041Y-102653014D01*
X196163739Y-102852440D01*
X196163732Y-102852458D01*
X196102759Y-103066751D01*
X196082203Y-103288600D01*
X196082203Y-103288601D01*
X99060500Y-103288601D01*
X99060500Y-100575054D01*
X113567772Y-100575054D01*
X113588054Y-100780987D01*
X113588055Y-100780989D01*
X113648123Y-100979009D01*
X113745670Y-101161505D01*
X113745672Y-101161507D01*
X113876944Y-101321465D01*
X113973564Y-101400757D01*
X114036905Y-101452740D01*
X114219401Y-101550287D01*
X114417421Y-101610355D01*
X114417420Y-101610355D01*
X114456002Y-101614155D01*
X114571747Y-101625555D01*
X114571750Y-101625555D01*
X116374960Y-101625555D01*
X116374963Y-101625555D01*
X116529289Y-101610355D01*
X116727309Y-101550287D01*
X116783960Y-101520006D01*
X178385421Y-101520006D01*
X178404585Y-101751297D01*
X178404587Y-101751308D01*
X178461563Y-101976300D01*
X178554796Y-102188848D01*
X178681737Y-102383147D01*
X178681740Y-102383151D01*
X178681742Y-102383153D01*
X178838937Y-102553913D01*
X178838940Y-102553915D01*
X178838943Y-102553918D01*
X179022086Y-102696464D01*
X179022092Y-102696468D01*
X179022095Y-102696470D01*
X179226218Y-102806936D01*
X179340208Y-102846068D01*
X179445736Y-102882297D01*
X179445738Y-102882297D01*
X179445740Y-102882298D01*
X179674672Y-102920500D01*
X179674673Y-102920500D01*
X179906769Y-102920500D01*
X179906770Y-102920500D01*
X180135702Y-102882298D01*
X180355224Y-102806936D01*
X180559347Y-102696470D01*
X180567672Y-102689991D01*
X180599965Y-102664856D01*
X188550221Y-102664856D01*
X188550223Y-102664882D01*
X188553134Y-102689987D01*
X188553136Y-102689991D01*
X188598514Y-102792764D01*
X188598515Y-102792764D01*
X188598515Y-102792765D01*
X188677956Y-102872206D01*
X188780730Y-102917585D01*
X188805856Y-102920500D01*
X191095585Y-102920499D01*
X191095600Y-102920497D01*
X191095603Y-102920497D01*
X191120708Y-102917586D01*
X191120709Y-102917585D01*
X191120712Y-102917585D01*
X191223486Y-102872206D01*
X191302927Y-102792765D01*
X191348306Y-102689991D01*
X191351221Y-102664865D01*
X191351220Y-100375136D01*
X191350523Y-100369122D01*
X191348307Y-100350012D01*
X191348306Y-100350010D01*
X191348306Y-100350009D01*
X191302927Y-100247235D01*
X191223486Y-100167794D01*
X191200630Y-100157702D01*
X191120713Y-100122415D01*
X191095586Y-100119500D01*
X188805864Y-100119500D01*
X188805838Y-100119502D01*
X188780733Y-100122413D01*
X188780729Y-100122415D01*
X188677956Y-100167793D01*
X188598515Y-100247234D01*
X188553136Y-100350006D01*
X188553136Y-100350008D01*
X188550221Y-100375131D01*
X188550221Y-102664856D01*
X180599965Y-102664856D01*
X180620850Y-102648600D01*
X180742505Y-102553913D01*
X180899700Y-102383153D01*
X181026645Y-102188849D01*
X181119878Y-101976300D01*
X181176855Y-101751305D01*
X181187275Y-101625555D01*
X181196021Y-101520006D01*
X181196021Y-101519993D01*
X181176856Y-101288702D01*
X181176854Y-101288691D01*
X181119878Y-101063699D01*
X181026645Y-100851151D01*
X180899704Y-100656852D01*
X180899701Y-100656849D01*
X180899700Y-100656847D01*
X180742505Y-100486087D01*
X180742500Y-100486083D01*
X180742498Y-100486081D01*
X180559355Y-100343535D01*
X180559349Y-100343531D01*
X180355225Y-100233064D01*
X180355216Y-100233061D01*
X180135705Y-100157702D01*
X179964003Y-100129050D01*
X179906770Y-100119500D01*
X179674672Y-100119500D01*
X179628885Y-100127140D01*
X179445736Y-100157702D01*
X179226225Y-100233061D01*
X179226216Y-100233064D01*
X179022092Y-100343531D01*
X179022086Y-100343535D01*
X178838943Y-100486081D01*
X178838940Y-100486084D01*
X178681737Y-100656852D01*
X178554796Y-100851151D01*
X178461563Y-101063699D01*
X178404587Y-101288691D01*
X178404585Y-101288702D01*
X178385421Y-101519993D01*
X178385421Y-101520006D01*
X116783960Y-101520006D01*
X116909805Y-101452740D01*
X117069765Y-101321465D01*
X117201040Y-101161505D01*
X117298587Y-100979009D01*
X117358655Y-100780989D01*
X117378938Y-100575055D01*
X117358655Y-100369121D01*
X117298587Y-100171101D01*
X117201040Y-99988605D01*
X117149057Y-99925264D01*
X117069765Y-99828644D01*
X116909807Y-99697372D01*
X116909808Y-99697372D01*
X116909805Y-99697370D01*
X116727309Y-99599823D01*
X116529289Y-99539755D01*
X116529287Y-99539754D01*
X116529289Y-99539754D01*
X116410160Y-99528021D01*
X116374963Y-99524555D01*
X114571747Y-99524555D01*
X114533653Y-99528306D01*
X114417422Y-99539754D01*
X114219398Y-99599824D01*
X114109252Y-99658698D01*
X114036905Y-99697370D01*
X114036903Y-99697371D01*
X114036902Y-99697372D01*
X113876944Y-99828644D01*
X113745672Y-99988602D01*
X113745670Y-99988605D01*
X113732140Y-100013918D01*
X113648124Y-100171098D01*
X113588054Y-100369122D01*
X113567772Y-100575054D01*
X99060500Y-100575054D01*
X99060500Y-98980006D01*
X120514700Y-98980006D01*
X120533864Y-99211297D01*
X120533866Y-99211308D01*
X120590842Y-99436300D01*
X120684075Y-99648848D01*
X120811016Y-99843147D01*
X120811019Y-99843151D01*
X120811021Y-99843153D01*
X120968216Y-100013913D01*
X120968219Y-100013915D01*
X120968222Y-100013918D01*
X121151365Y-100156464D01*
X121151371Y-100156468D01*
X121151374Y-100156470D01*
X121355497Y-100266936D01*
X121469487Y-100306068D01*
X121575015Y-100342297D01*
X121575017Y-100342297D01*
X121575019Y-100342298D01*
X121803951Y-100380500D01*
X121803952Y-100380500D01*
X122036048Y-100380500D01*
X122036049Y-100380500D01*
X122264981Y-100342298D01*
X122484503Y-100266936D01*
X122688626Y-100156470D01*
X122871784Y-100013913D01*
X123028979Y-99843153D01*
X123155924Y-99648849D01*
X123249157Y-99436300D01*
X123306134Y-99211305D01*
X123306135Y-99211297D01*
X123325300Y-98980006D01*
X123325300Y-98979993D01*
X123306135Y-98748702D01*
X123306133Y-98748691D01*
X123249157Y-98523699D01*
X123155924Y-98311151D01*
X123028983Y-98116852D01*
X123028980Y-98116849D01*
X123028979Y-98116847D01*
X122871784Y-97946087D01*
X122871779Y-97946083D01*
X122871777Y-97946081D01*
X122688634Y-97803535D01*
X122688628Y-97803531D01*
X122484504Y-97693064D01*
X122484495Y-97693061D01*
X122460595Y-97684856D01*
X133119500Y-97684856D01*
X133119502Y-97684882D01*
X133122413Y-97709987D01*
X133122415Y-97709991D01*
X133167793Y-97812764D01*
X133167794Y-97812765D01*
X133247235Y-97892206D01*
X133350009Y-97937585D01*
X133375135Y-97940500D01*
X135864864Y-97940499D01*
X135864879Y-97940497D01*
X135864882Y-97940497D01*
X135889987Y-97937586D01*
X135889988Y-97937585D01*
X135889991Y-97937585D01*
X135992765Y-97892206D01*
X136072206Y-97812765D01*
X136117585Y-97709991D01*
X136120500Y-97684865D01*
X136120500Y-97684856D01*
X150899500Y-97684856D01*
X150899502Y-97684882D01*
X150902413Y-97709987D01*
X150902415Y-97709991D01*
X150947793Y-97812764D01*
X150947794Y-97812765D01*
X151027235Y-97892206D01*
X151130009Y-97937585D01*
X151155135Y-97940500D01*
X153644864Y-97940499D01*
X153644879Y-97940497D01*
X153644882Y-97940497D01*
X153669987Y-97937586D01*
X153669988Y-97937585D01*
X153669991Y-97937585D01*
X153772765Y-97892206D01*
X153852206Y-97812765D01*
X153897585Y-97709991D01*
X153900500Y-97684865D01*
X153900500Y-97484856D01*
X166339500Y-97484856D01*
X166339502Y-97484882D01*
X166342413Y-97509987D01*
X166342415Y-97509991D01*
X166387793Y-97612764D01*
X166387794Y-97612765D01*
X166467235Y-97692206D01*
X166570009Y-97737585D01*
X166595135Y-97740500D01*
X168684864Y-97740499D01*
X168684879Y-97740497D01*
X168684882Y-97740497D01*
X168709987Y-97737586D01*
X168709988Y-97737585D01*
X168709991Y-97737585D01*
X168812765Y-97692206D01*
X168892206Y-97612765D01*
X168937585Y-97509991D01*
X168940500Y-97484865D01*
X168940499Y-95395136D01*
X168940497Y-95395117D01*
X168937586Y-95370012D01*
X168937585Y-95370010D01*
X168937585Y-95370009D01*
X168892206Y-95267235D01*
X168812765Y-95187794D01*
X168787565Y-95176667D01*
X168709992Y-95142415D01*
X168684865Y-95139500D01*
X166595143Y-95139500D01*
X166595117Y-95139502D01*
X166570012Y-95142413D01*
X166570008Y-95142415D01*
X166467235Y-95187793D01*
X166387794Y-95267234D01*
X166342415Y-95370006D01*
X166342415Y-95370008D01*
X166339500Y-95395131D01*
X166339500Y-97484856D01*
X153900500Y-97484856D01*
X153900499Y-95195136D01*
X153899648Y-95187794D01*
X153897586Y-95170012D01*
X153897585Y-95170010D01*
X153897585Y-95170009D01*
X153852206Y-95067235D01*
X153772765Y-94987794D01*
X153772765Y-94987793D01*
X153669992Y-94942415D01*
X153644865Y-94939500D01*
X151155143Y-94939500D01*
X151155117Y-94939502D01*
X151130012Y-94942413D01*
X151130008Y-94942415D01*
X151027235Y-94987793D01*
X150947794Y-95067234D01*
X150902415Y-95170006D01*
X150902415Y-95170008D01*
X150899500Y-95195131D01*
X150899500Y-97684856D01*
X136120500Y-97684856D01*
X136120499Y-95195136D01*
X136119648Y-95187794D01*
X136117586Y-95170012D01*
X136117585Y-95170010D01*
X136117585Y-95170009D01*
X136072206Y-95067235D01*
X135992765Y-94987794D01*
X135992763Y-94987793D01*
X135889992Y-94942415D01*
X135864865Y-94939500D01*
X133375143Y-94939500D01*
X133375117Y-94939502D01*
X133350012Y-94942413D01*
X133350008Y-94942415D01*
X133247235Y-94987793D01*
X133167794Y-95067234D01*
X133122415Y-95170006D01*
X133122415Y-95170008D01*
X133119500Y-95195131D01*
X133119500Y-97684856D01*
X122460595Y-97684856D01*
X122264984Y-97617702D01*
X122082276Y-97587214D01*
X122036049Y-97579500D01*
X121803951Y-97579500D01*
X121758164Y-97587140D01*
X121575015Y-97617702D01*
X121355504Y-97693061D01*
X121355495Y-97693064D01*
X121151371Y-97803531D01*
X121151365Y-97803535D01*
X120968222Y-97946081D01*
X120968219Y-97946084D01*
X120811016Y-98116852D01*
X120684075Y-98311151D01*
X120590842Y-98523699D01*
X120533866Y-98748691D01*
X120533864Y-98748702D01*
X120514700Y-98979993D01*
X120514700Y-98980006D01*
X99060500Y-98980006D01*
X99060500Y-96410078D01*
X103066122Y-96410078D01*
X103704441Y-95771759D01*
X103765764Y-95738274D01*
X103835455Y-95743258D01*
X103891389Y-95785129D01*
X103915806Y-95850594D01*
X103916122Y-95859440D01*
X103916122Y-96215820D01*
X103896437Y-96282859D01*
X103879803Y-96303501D01*
X103218323Y-96964980D01*
X103238728Y-97007352D01*
X103238729Y-97007354D01*
X103370972Y-97189372D01*
X103370979Y-97189380D01*
X103533608Y-97344868D01*
X103721388Y-97468822D01*
X103928291Y-97557255D01*
X103928300Y-97557258D01*
X104147646Y-97607322D01*
X104147657Y-97607324D01*
X104372425Y-97617418D01*
X104595400Y-97587214D01*
X104809390Y-97517685D01*
X105007523Y-97411065D01*
X105007526Y-97411063D01*
X105183442Y-97270776D01*
X105331474Y-97101338D01*
X105331475Y-97101338D01*
X105413309Y-96964371D01*
X104865025Y-96416087D01*
X116893100Y-96416087D01*
X116908299Y-96570415D01*
X116908300Y-96570417D01*
X116968368Y-96768437D01*
X117065915Y-96950933D01*
X117065917Y-96950935D01*
X117197189Y-97110893D01*
X117292827Y-97189380D01*
X117357150Y-97242168D01*
X117539646Y-97339715D01*
X117737666Y-97399783D01*
X117737665Y-97399783D01*
X117757947Y-97401780D01*
X117943600Y-97420066D01*
X118149534Y-97399783D01*
X118347554Y-97339715D01*
X118530050Y-97242168D01*
X118690010Y-97110893D01*
X118821285Y-96950933D01*
X118918832Y-96768437D01*
X118978900Y-96570417D01*
X118994100Y-96416091D01*
X118994100Y-94612875D01*
X118978900Y-94458549D01*
X118918832Y-94260529D01*
X118821285Y-94078033D01*
X118769302Y-94014692D01*
X118690010Y-93918072D01*
X118572277Y-93821452D01*
X118530050Y-93786798D01*
X118347554Y-93689251D01*
X118149534Y-93629183D01*
X118149532Y-93629182D01*
X118149534Y-93629182D01*
X117962063Y-93610718D01*
X117943600Y-93608900D01*
X117943599Y-93608900D01*
X117737667Y-93629182D01*
X117539643Y-93689252D01*
X117429498Y-93748126D01*
X117357150Y-93786798D01*
X117357148Y-93786799D01*
X117357147Y-93786800D01*
X117197189Y-93918072D01*
X117065917Y-94078030D01*
X116968369Y-94260526D01*
X116908299Y-94458550D01*
X116896851Y-94574781D01*
X116895503Y-94588483D01*
X116893100Y-94612878D01*
X116893100Y-96416087D01*
X104865025Y-96416087D01*
X104752440Y-96303502D01*
X104718955Y-96242179D01*
X104716122Y-96215830D01*
X104716122Y-95859439D01*
X104735807Y-95792400D01*
X104788611Y-95746645D01*
X104857769Y-95736702D01*
X104921325Y-95765727D01*
X104927803Y-95771759D01*
X105566121Y-96410078D01*
X105566122Y-96410077D01*
X105566122Y-94617184D01*
X105566121Y-94617183D01*
X104927803Y-95255502D01*
X104866480Y-95288987D01*
X104796788Y-95284003D01*
X104740855Y-95242131D01*
X104716438Y-95176667D01*
X104716122Y-95167821D01*
X104716122Y-94811439D01*
X104735807Y-94744400D01*
X104752441Y-94723758D01*
X105413919Y-94062279D01*
X105413919Y-94062278D01*
X105393521Y-94019917D01*
X105393516Y-94019910D01*
X105261271Y-93837889D01*
X105261264Y-93837881D01*
X105098635Y-93682393D01*
X104910855Y-93558439D01*
X104703952Y-93470006D01*
X104703943Y-93470003D01*
X104484597Y-93419939D01*
X104484586Y-93419937D01*
X104259818Y-93409843D01*
X104036843Y-93440047D01*
X103822853Y-93509576D01*
X103624720Y-93616196D01*
X103624717Y-93616198D01*
X103448801Y-93756485D01*
X103300764Y-93925928D01*
X103300762Y-93925930D01*
X103218933Y-94062887D01*
X103218933Y-94062889D01*
X103879803Y-94723759D01*
X103913288Y-94785082D01*
X103916122Y-94811440D01*
X103916122Y-95167821D01*
X103896437Y-95234860D01*
X103843633Y-95280615D01*
X103774475Y-95290559D01*
X103710919Y-95261534D01*
X103704441Y-95255502D01*
X103066122Y-94617183D01*
X103066122Y-96410078D01*
X99060500Y-96410078D01*
X99060500Y-91440005D01*
X166134859Y-91440005D01*
X166155385Y-91687729D01*
X166155387Y-91687738D01*
X166216412Y-91928717D01*
X166316266Y-92156364D01*
X166416564Y-92309882D01*
X167031050Y-91695395D01*
X167092373Y-91661910D01*
X167162064Y-91666894D01*
X167217998Y-91708765D01*
X167223039Y-91716025D01*
X167258239Y-91770798D01*
X167355689Y-91855238D01*
X167373602Y-91870759D01*
X167371293Y-91873422D01*
X167406006Y-91913499D01*
X167415935Y-91982660D01*
X167386898Y-92046210D01*
X167380882Y-92052669D01*
X166769942Y-92663609D01*
X166816768Y-92700055D01*
X166816770Y-92700056D01*
X167035385Y-92818364D01*
X167035396Y-92818369D01*
X167270506Y-92899083D01*
X167515707Y-92940000D01*
X167764293Y-92940000D01*
X168009493Y-92899083D01*
X168244603Y-92818369D01*
X168244614Y-92818364D01*
X168463228Y-92700057D01*
X168463231Y-92700055D01*
X168510056Y-92663609D01*
X167899116Y-92052669D01*
X167865631Y-91991346D01*
X167870615Y-91921654D01*
X167907641Y-91872193D01*
X167906398Y-91870759D01*
X167913100Y-91864952D01*
X168021761Y-91770798D01*
X168056954Y-91716037D01*
X168109755Y-91670283D01*
X168178914Y-91660339D01*
X168242470Y-91689363D01*
X168248949Y-91695396D01*
X168863434Y-92309882D01*
X168963731Y-92156369D01*
X169063587Y-91928717D01*
X169124612Y-91687738D01*
X169124614Y-91687729D01*
X169145141Y-91440005D01*
X169145141Y-91439994D01*
X169124614Y-91192270D01*
X169124612Y-91192261D01*
X169063587Y-90951282D01*
X169055129Y-90931999D01*
X174046355Y-90931999D01*
X174066859Y-91100869D01*
X174066860Y-91100874D01*
X174127182Y-91259931D01*
X174179550Y-91335798D01*
X174201433Y-91402152D01*
X174201500Y-91406238D01*
X174201500Y-93462602D01*
X174199238Y-93528829D01*
X174209715Y-93571819D01*
X174210901Y-93578061D01*
X174216929Y-93621920D01*
X174224079Y-93638379D01*
X174230819Y-93658420D01*
X174235067Y-93675852D01*
X174256763Y-93714439D01*
X174259582Y-93720115D01*
X174277220Y-93760720D01*
X174277221Y-93760722D01*
X174288541Y-93774636D01*
X174300439Y-93792117D01*
X174309234Y-93807760D01*
X174309236Y-93807761D01*
X174340532Y-93839057D01*
X174344783Y-93843766D01*
X174372722Y-93878108D01*
X174387381Y-93888455D01*
X174403552Y-93902077D01*
X179106169Y-98604694D01*
X179139654Y-98666017D01*
X179141584Y-98677426D01*
X179146859Y-98720871D01*
X179146860Y-98720875D01*
X179207182Y-98879930D01*
X179207182Y-98879931D01*
X179237732Y-98924189D01*
X179303817Y-99019929D01*
X179396442Y-99101987D01*
X179431150Y-99132736D01*
X179580836Y-99211297D01*
X179581775Y-99211790D01*
X179746944Y-99252500D01*
X179917056Y-99252500D01*
X180082225Y-99211790D01*
X180161692Y-99170081D01*
X180232849Y-99132736D01*
X180232850Y-99132734D01*
X180232852Y-99132734D01*
X180360183Y-99019929D01*
X180456818Y-98879930D01*
X180517140Y-98720872D01*
X180537645Y-98552000D01*
X180517140Y-98383128D01*
X180481291Y-98288601D01*
X196082203Y-98288601D01*
X196102759Y-98510450D01*
X196163732Y-98724743D01*
X196163739Y-98724761D01*
X196263041Y-98924187D01*
X196397312Y-99101989D01*
X196561961Y-99252086D01*
X196561963Y-99252088D01*
X196751387Y-99369374D01*
X196751388Y-99369374D01*
X196751391Y-99369376D01*
X196959146Y-99449861D01*
X197178153Y-99490801D01*
X197178155Y-99490801D01*
X197400951Y-99490801D01*
X197400953Y-99490801D01*
X197619960Y-99449861D01*
X197827715Y-99369376D01*
X198017144Y-99252087D01*
X198181795Y-99101987D01*
X198316063Y-98924189D01*
X198338101Y-98879930D01*
X198415366Y-98724761D01*
X198415367Y-98724756D01*
X198415373Y-98724746D01*
X198476346Y-98510451D01*
X198496903Y-98288601D01*
X198490923Y-98224070D01*
X198476346Y-98066751D01*
X198449177Y-97971263D01*
X198415373Y-97852456D01*
X198415369Y-97852448D01*
X198415366Y-97852440D01*
X198316064Y-97653014D01*
X198181793Y-97475212D01*
X198017144Y-97325115D01*
X198017142Y-97325113D01*
X197827718Y-97207827D01*
X197827712Y-97207825D01*
X197619960Y-97127341D01*
X197400953Y-97086401D01*
X197178153Y-97086401D01*
X196959146Y-97127341D01*
X196827764Y-97178238D01*
X196751393Y-97207825D01*
X196751387Y-97207827D01*
X196561963Y-97325113D01*
X196561961Y-97325115D01*
X196397312Y-97475212D01*
X196263041Y-97653014D01*
X196163739Y-97852440D01*
X196163732Y-97852458D01*
X196102759Y-98066751D01*
X196082203Y-98288600D01*
X196082203Y-98288601D01*
X180481291Y-98288601D01*
X180456818Y-98224070D01*
X180360183Y-98084071D01*
X180232852Y-97971266D01*
X180232849Y-97971263D01*
X180082226Y-97892210D01*
X179941287Y-97857472D01*
X179883281Y-97824756D01*
X175338819Y-93280294D01*
X175305334Y-93218971D01*
X175302500Y-93192613D01*
X175302500Y-91519770D01*
X183941633Y-91519770D01*
X183959619Y-91627561D01*
X184037778Y-91855224D01*
X184037784Y-91855238D01*
X184152344Y-92066929D01*
X184152350Y-92066938D01*
X184300193Y-92256886D01*
X184300196Y-92256889D01*
X184400360Y-92349097D01*
X184436350Y-92408984D01*
X184434250Y-92478822D01*
X184394726Y-92536438D01*
X184358226Y-92555201D01*
X184358542Y-92555917D01*
X184247235Y-92605063D01*
X184167794Y-92684504D01*
X184122415Y-92787276D01*
X184122415Y-92787278D01*
X184119500Y-92812401D01*
X184119500Y-94807126D01*
X184119502Y-94807152D01*
X184122413Y-94832257D01*
X184122415Y-94832261D01*
X184167793Y-94935034D01*
X184167794Y-94935035D01*
X184247235Y-95014476D01*
X184350009Y-95059855D01*
X184375135Y-95062770D01*
X186464864Y-95062769D01*
X186464879Y-95062767D01*
X186464882Y-95062767D01*
X186489987Y-95059856D01*
X186489988Y-95059855D01*
X186489991Y-95059855D01*
X186592765Y-95014476D01*
X186672206Y-94935035D01*
X186717585Y-94832261D01*
X186720500Y-94807135D01*
X186720499Y-92812406D01*
X186720497Y-92812387D01*
X186717586Y-92787282D01*
X186717585Y-92787280D01*
X186717585Y-92787279D01*
X186672206Y-92684505D01*
X186592765Y-92605064D01*
X186592763Y-92605063D01*
X186481458Y-92555917D01*
X186482099Y-92554464D01*
X186431543Y-92523377D01*
X186401260Y-92460411D01*
X186409827Y-92391068D01*
X186439640Y-92349097D01*
X186539803Y-92256889D01*
X186539806Y-92256886D01*
X186687649Y-92066938D01*
X186687655Y-92066929D01*
X186802215Y-91855238D01*
X186802221Y-91855224D01*
X186880380Y-91627561D01*
X186898367Y-91519770D01*
X186133658Y-91519770D01*
X186066619Y-91500085D01*
X186020864Y-91447281D01*
X186010719Y-91379586D01*
X186025177Y-91269770D01*
X186010719Y-91159953D01*
X186021484Y-91090921D01*
X186067864Y-91038665D01*
X186133658Y-91019770D01*
X186898366Y-91019770D01*
X186898366Y-91019769D01*
X186880380Y-90911978D01*
X186802221Y-90684315D01*
X186802215Y-90684301D01*
X186687655Y-90472610D01*
X186687649Y-90472601D01*
X186539806Y-90282653D01*
X186539797Y-90282643D01*
X186362710Y-90119621D01*
X186362707Y-90119620D01*
X186157141Y-89985316D01*
X186111785Y-89932169D01*
X186102361Y-89862938D01*
X186131863Y-89799602D01*
X186152078Y-89781189D01*
X186224445Y-89728610D01*
X186295230Y-89677183D01*
X186451095Y-89514161D01*
X186575346Y-89325928D01*
X186663991Y-89118533D01*
X186714179Y-88898644D01*
X186724298Y-88673327D01*
X186694023Y-88449824D01*
X186624326Y-88235319D01*
X186517447Y-88036706D01*
X186376823Y-87860368D01*
X186376817Y-87860363D01*
X186376815Y-87860360D01*
X186206978Y-87711979D01*
X186206978Y-87711978D01*
X186206973Y-87711975D01*
X186206972Y-87711974D01*
X186013354Y-87596293D01*
X185934101Y-87566549D01*
X185802191Y-87517041D01*
X185580275Y-87476770D01*
X185580272Y-87476770D01*
X185316224Y-87476770D01*
X185284875Y-87479591D01*
X185147862Y-87491922D01*
X184930459Y-87551921D01*
X184930444Y-87551927D01*
X184727242Y-87649783D01*
X184727232Y-87649789D01*
X184544775Y-87782352D01*
X184544767Y-87782358D01*
X184388906Y-87945376D01*
X184264654Y-88133611D01*
X184264654Y-88133612D01*
X184176440Y-88340000D01*
X184176009Y-88341008D01*
X184176006Y-88341017D01*
X184125821Y-88560892D01*
X184125821Y-88560896D01*
X184122385Y-88637411D01*
X184120772Y-88673331D01*
X184115702Y-88786213D01*
X184145977Y-89009716D01*
X184145978Y-89009720D01*
X184215673Y-89224220D01*
X184270405Y-89325928D01*
X184322553Y-89422834D01*
X184463177Y-89599172D01*
X184463181Y-89599175D01*
X184463184Y-89599179D01*
X184633021Y-89747560D01*
X184633021Y-89747561D01*
X184633025Y-89747563D01*
X184633028Y-89747566D01*
X184678832Y-89774933D01*
X184726284Y-89826214D01*
X184738479Y-89895011D01*
X184711544Y-89959480D01*
X184683053Y-89985187D01*
X184477300Y-90119613D01*
X184477289Y-90119621D01*
X184300202Y-90282643D01*
X184300193Y-90282653D01*
X184152350Y-90472601D01*
X184152344Y-90472610D01*
X184037784Y-90684301D01*
X184037778Y-90684315D01*
X183959619Y-90911978D01*
X183941633Y-91019769D01*
X183941634Y-91019770D01*
X184706342Y-91019770D01*
X184773381Y-91039455D01*
X184819136Y-91092259D01*
X184829280Y-91159953D01*
X184814823Y-91269770D01*
X184829280Y-91379586D01*
X184818516Y-91448619D01*
X184772136Y-91500875D01*
X184706342Y-91519770D01*
X183941633Y-91519770D01*
X175302500Y-91519770D01*
X175302500Y-91406238D01*
X175322185Y-91339199D01*
X175324450Y-91335798D01*
X175338670Y-91315196D01*
X175376818Y-91259930D01*
X175437140Y-91100872D01*
X175457645Y-90932000D01*
X175437140Y-90763128D01*
X175376818Y-90604070D01*
X175280183Y-90464071D01*
X175152852Y-90351266D01*
X175152849Y-90351263D01*
X175002226Y-90272210D01*
X174837056Y-90231500D01*
X174666944Y-90231500D01*
X174501773Y-90272210D01*
X174351150Y-90351263D01*
X174223816Y-90464072D01*
X174127182Y-90604068D01*
X174066860Y-90763125D01*
X174066859Y-90763130D01*
X174046355Y-90931999D01*
X169055129Y-90931999D01*
X168963731Y-90723630D01*
X168863434Y-90570116D01*
X168248949Y-91184602D01*
X168187626Y-91218087D01*
X168117934Y-91213103D01*
X168062001Y-91171231D01*
X168056953Y-91163961D01*
X168021761Y-91109202D01*
X168000663Y-91090921D01*
X167913100Y-91015048D01*
X167913099Y-91015047D01*
X167906398Y-91009241D01*
X167908698Y-91006585D01*
X167873960Y-90966428D01*
X167864074Y-90897261D01*
X167893152Y-90833729D01*
X167899116Y-90827329D01*
X168510056Y-90216389D01*
X168463229Y-90179943D01*
X168244614Y-90061635D01*
X168244603Y-90061630D01*
X168009493Y-89980916D01*
X167764293Y-89940000D01*
X167515707Y-89940000D01*
X167270506Y-89980916D01*
X167035396Y-90061630D01*
X167035390Y-90061632D01*
X166816761Y-90179949D01*
X166769942Y-90216388D01*
X166769942Y-90216390D01*
X167380883Y-90827330D01*
X167414368Y-90888653D01*
X167409384Y-90958344D01*
X167372358Y-91007805D01*
X167373602Y-91009241D01*
X167366900Y-91015047D01*
X167366900Y-91015048D01*
X167348879Y-91030662D01*
X167258238Y-91109202D01*
X167223046Y-91163962D01*
X167170242Y-91209717D01*
X167101083Y-91219660D01*
X167037528Y-91190634D01*
X167031050Y-91184603D01*
X166416564Y-90570116D01*
X166316267Y-90723632D01*
X166216412Y-90951282D01*
X166155387Y-91192261D01*
X166155385Y-91192270D01*
X166134859Y-91439994D01*
X166134859Y-91440005D01*
X99060500Y-91440005D01*
X99060500Y-89964856D01*
X120519500Y-89964856D01*
X120519502Y-89964882D01*
X120522413Y-89989987D01*
X120522415Y-89989991D01*
X120567793Y-90092764D01*
X120567794Y-90092765D01*
X120647235Y-90172206D01*
X120750009Y-90217585D01*
X120775135Y-90220500D01*
X123064864Y-90220499D01*
X123064879Y-90220497D01*
X123064882Y-90220497D01*
X123089987Y-90217586D01*
X123089988Y-90217585D01*
X123089991Y-90217585D01*
X123192765Y-90172206D01*
X123272206Y-90092765D01*
X123317585Y-89989991D01*
X123320500Y-89964865D01*
X123320500Y-88940004D01*
X132915233Y-88940004D01*
X132934273Y-89194079D01*
X132990968Y-89442477D01*
X132990973Y-89442494D01*
X133084058Y-89679671D01*
X133084057Y-89679671D01*
X133211457Y-89900332D01*
X133253452Y-89952993D01*
X133938590Y-89267855D01*
X133999913Y-89234370D01*
X134069604Y-89239354D01*
X134124645Y-89280049D01*
X134159850Y-89325928D01*
X134192075Y-89367925D01*
X134279948Y-89435353D01*
X134321150Y-89491781D01*
X134325305Y-89561527D01*
X134292142Y-89621409D01*
X133606813Y-90306737D01*
X133767623Y-90416375D01*
X133767624Y-90416376D01*
X133997176Y-90526921D01*
X133997174Y-90526921D01*
X134240652Y-90602024D01*
X134240658Y-90602026D01*
X134492595Y-90639999D01*
X134492604Y-90640000D01*
X134747396Y-90640000D01*
X134747404Y-90639999D01*
X134999341Y-90602026D01*
X134999347Y-90602024D01*
X135242824Y-90526921D01*
X135472381Y-90416373D01*
X135633185Y-90306737D01*
X134947856Y-89621409D01*
X134914371Y-89560086D01*
X134919355Y-89490395D01*
X134960049Y-89435353D01*
X135047925Y-89367925D01*
X135115354Y-89280048D01*
X135171779Y-89238848D01*
X135241525Y-89234693D01*
X135301409Y-89267856D01*
X135986545Y-89952993D01*
X136028545Y-89900327D01*
X136155941Y-89679671D01*
X136249026Y-89442494D01*
X136249031Y-89442477D01*
X136305726Y-89194079D01*
X136324767Y-88940004D01*
X150695233Y-88940004D01*
X150714273Y-89194079D01*
X150770968Y-89442477D01*
X150770973Y-89442494D01*
X150864058Y-89679671D01*
X150864057Y-89679671D01*
X150991457Y-89900332D01*
X151033452Y-89952993D01*
X151718590Y-89267855D01*
X151779913Y-89234370D01*
X151849604Y-89239354D01*
X151904645Y-89280049D01*
X151939850Y-89325928D01*
X151972075Y-89367925D01*
X152059948Y-89435353D01*
X152101150Y-89491781D01*
X152105305Y-89561527D01*
X152072142Y-89621409D01*
X151386813Y-90306737D01*
X151547623Y-90416375D01*
X151547624Y-90416376D01*
X151777176Y-90526921D01*
X151777174Y-90526921D01*
X152020652Y-90602024D01*
X152020658Y-90602026D01*
X152272595Y-90639999D01*
X152272604Y-90640000D01*
X152527396Y-90640000D01*
X152527404Y-90639999D01*
X152779341Y-90602026D01*
X152779347Y-90602024D01*
X153022824Y-90526921D01*
X153252381Y-90416373D01*
X153413185Y-90306737D01*
X152727856Y-89621409D01*
X152694371Y-89560086D01*
X152699355Y-89490395D01*
X152740049Y-89435353D01*
X152827925Y-89367925D01*
X152895354Y-89280048D01*
X152951779Y-89238848D01*
X153021525Y-89234693D01*
X153081409Y-89267856D01*
X153766545Y-89952993D01*
X153808545Y-89900327D01*
X153935941Y-89679671D01*
X154029026Y-89442494D01*
X154029031Y-89442477D01*
X154085726Y-89194079D01*
X154104767Y-88940004D01*
X154104767Y-88939995D01*
X154085726Y-88685920D01*
X154029031Y-88437522D01*
X154029026Y-88437505D01*
X153935941Y-88200328D01*
X153935942Y-88200328D01*
X153808544Y-87979671D01*
X153766545Y-87927005D01*
X153081409Y-88612142D01*
X153020086Y-88645627D01*
X152950394Y-88640643D01*
X152895353Y-88599948D01*
X152827925Y-88512075D01*
X152827925Y-88512074D01*
X152740049Y-88444645D01*
X152698847Y-88388219D01*
X152694692Y-88318473D01*
X152727855Y-88258590D01*
X153413185Y-87573261D01*
X153252377Y-87463624D01*
X153252376Y-87463623D01*
X153022823Y-87353078D01*
X153022825Y-87353078D01*
X152779347Y-87277975D01*
X152779341Y-87277973D01*
X152527404Y-87240000D01*
X152272595Y-87240000D01*
X152020658Y-87277973D01*
X152020652Y-87277975D01*
X151777175Y-87353078D01*
X151547624Y-87463623D01*
X151547616Y-87463628D01*
X151386813Y-87573261D01*
X152072143Y-88258590D01*
X152105628Y-88319913D01*
X152100644Y-88389604D01*
X152059949Y-88444646D01*
X151972075Y-88512074D01*
X151972074Y-88512075D01*
X151904646Y-88599949D01*
X151848218Y-88641151D01*
X151778472Y-88645306D01*
X151718590Y-88612143D01*
X151033453Y-87927006D01*
X150991455Y-87979670D01*
X150864058Y-88200328D01*
X150770973Y-88437505D01*
X150770968Y-88437522D01*
X150714273Y-88685920D01*
X150695233Y-88939995D01*
X150695233Y-88940004D01*
X136324767Y-88940004D01*
X136324767Y-88939995D01*
X136305726Y-88685920D01*
X136249031Y-88437522D01*
X136249026Y-88437505D01*
X136155941Y-88200328D01*
X136155942Y-88200328D01*
X136028544Y-87979671D01*
X135986545Y-87927005D01*
X135301409Y-88612142D01*
X135240086Y-88645627D01*
X135170394Y-88640643D01*
X135115353Y-88599948D01*
X135047925Y-88512075D01*
X135047925Y-88512074D01*
X134960049Y-88444645D01*
X134918847Y-88388219D01*
X134914692Y-88318473D01*
X134947855Y-88258590D01*
X135633185Y-87573261D01*
X135472377Y-87463624D01*
X135472376Y-87463623D01*
X135242823Y-87353078D01*
X135242825Y-87353078D01*
X134999347Y-87277975D01*
X134999341Y-87277973D01*
X134747404Y-87240000D01*
X134492595Y-87240000D01*
X134240658Y-87277973D01*
X134240652Y-87277975D01*
X133997175Y-87353078D01*
X133767624Y-87463623D01*
X133767616Y-87463628D01*
X133606813Y-87573261D01*
X134292143Y-88258590D01*
X134325628Y-88319913D01*
X134320644Y-88389604D01*
X134279949Y-88444646D01*
X134192075Y-88512074D01*
X134192074Y-88512075D01*
X134124646Y-88599949D01*
X134068218Y-88641151D01*
X133998472Y-88645306D01*
X133938590Y-88612143D01*
X133253453Y-87927006D01*
X133211455Y-87979670D01*
X133084058Y-88200328D01*
X132990973Y-88437505D01*
X132990968Y-88437522D01*
X132934273Y-88685920D01*
X132915233Y-88939995D01*
X132915233Y-88940004D01*
X123320500Y-88940004D01*
X123320499Y-87675136D01*
X123320497Y-87675117D01*
X123317586Y-87650012D01*
X123317585Y-87650010D01*
X123317585Y-87650009D01*
X123272206Y-87547235D01*
X123192765Y-87467794D01*
X123183319Y-87463623D01*
X123089992Y-87422415D01*
X123064865Y-87419500D01*
X120775143Y-87419500D01*
X120775117Y-87419502D01*
X120750012Y-87422413D01*
X120750008Y-87422415D01*
X120647235Y-87467793D01*
X120567794Y-87547234D01*
X120522415Y-87650006D01*
X120522415Y-87650008D01*
X120519500Y-87675131D01*
X120519500Y-89964856D01*
X99060500Y-89964856D01*
X99060500Y-85077763D01*
X103555787Y-85077763D01*
X103585413Y-85347013D01*
X103585415Y-85347024D01*
X103653926Y-85609082D01*
X103653928Y-85609088D01*
X103759870Y-85858390D01*
X103831998Y-85976575D01*
X103900979Y-86089605D01*
X103900986Y-86089615D01*
X104074253Y-86297819D01*
X104074259Y-86297824D01*
X104275998Y-86478582D01*
X104501910Y-86628044D01*
X104747176Y-86743020D01*
X104747183Y-86743022D01*
X104747185Y-86743023D01*
X105006557Y-86821057D01*
X105006564Y-86821058D01*
X105006569Y-86821060D01*
X105274561Y-86860500D01*
X105274566Y-86860500D01*
X105477636Y-86860500D01*
X105529133Y-86856730D01*
X105680156Y-86845677D01*
X105792758Y-86820593D01*
X105944546Y-86786782D01*
X105944548Y-86786781D01*
X105944553Y-86786780D01*
X106197558Y-86690014D01*
X106433777Y-86557441D01*
X106648177Y-86391888D01*
X106836186Y-86196881D01*
X106993799Y-85976579D01*
X107067787Y-85832669D01*
X107117649Y-85735690D01*
X107117651Y-85735684D01*
X107117656Y-85735675D01*
X107205118Y-85479305D01*
X107254319Y-85212933D01*
X107259259Y-85077763D01*
X198805787Y-85077763D01*
X198835413Y-85347013D01*
X198835415Y-85347024D01*
X198903926Y-85609082D01*
X198903928Y-85609088D01*
X199009870Y-85858390D01*
X199081998Y-85976575D01*
X199150979Y-86089605D01*
X199150986Y-86089615D01*
X199324253Y-86297819D01*
X199324259Y-86297824D01*
X199525998Y-86478582D01*
X199751910Y-86628044D01*
X199997176Y-86743020D01*
X199997183Y-86743022D01*
X199997185Y-86743023D01*
X200256557Y-86821057D01*
X200256564Y-86821058D01*
X200256569Y-86821060D01*
X200524561Y-86860500D01*
X200524566Y-86860500D01*
X200727636Y-86860500D01*
X200779133Y-86856730D01*
X200930156Y-86845677D01*
X201042758Y-86820593D01*
X201194546Y-86786782D01*
X201194548Y-86786781D01*
X201194553Y-86786780D01*
X201447558Y-86690014D01*
X201683777Y-86557441D01*
X201898177Y-86391888D01*
X202086186Y-86196881D01*
X202243799Y-85976579D01*
X202317787Y-85832669D01*
X202367649Y-85735690D01*
X202367651Y-85735684D01*
X202367656Y-85735675D01*
X202455118Y-85479305D01*
X202504319Y-85212933D01*
X202514212Y-84942235D01*
X202484586Y-84672982D01*
X202416072Y-84410912D01*
X202310130Y-84161610D01*
X202169018Y-83930390D01*
X202079747Y-83823119D01*
X201995746Y-83722180D01*
X201995740Y-83722175D01*
X201794002Y-83541418D01*
X201568092Y-83391957D01*
X201568090Y-83391956D01*
X201322824Y-83276980D01*
X201322819Y-83276978D01*
X201322814Y-83276976D01*
X201063442Y-83198942D01*
X201063428Y-83198939D01*
X200947791Y-83181921D01*
X200795439Y-83159500D01*
X200592369Y-83159500D01*
X200592364Y-83159500D01*
X200389844Y-83174323D01*
X200389831Y-83174325D01*
X200125453Y-83233217D01*
X200125446Y-83233220D01*
X199872439Y-83329987D01*
X199636226Y-83462557D01*
X199421822Y-83628112D01*
X199233822Y-83823109D01*
X199233816Y-83823116D01*
X199076202Y-84043419D01*
X199076199Y-84043424D01*
X198952350Y-84284309D01*
X198952343Y-84284327D01*
X198864884Y-84540685D01*
X198864881Y-84540699D01*
X198815681Y-84807068D01*
X198815680Y-84807075D01*
X198805787Y-85077763D01*
X107259259Y-85077763D01*
X107264212Y-84942235D01*
X107234586Y-84672982D01*
X107166072Y-84410912D01*
X107060130Y-84161610D01*
X106919018Y-83930390D01*
X106829747Y-83823119D01*
X106745746Y-83722180D01*
X106745740Y-83722175D01*
X106544002Y-83541418D01*
X106318092Y-83391957D01*
X106318090Y-83391956D01*
X106072824Y-83276980D01*
X106072819Y-83276978D01*
X106072814Y-83276976D01*
X105813442Y-83198942D01*
X105813428Y-83198939D01*
X105697791Y-83181921D01*
X105545439Y-83159500D01*
X105342369Y-83159500D01*
X105342364Y-83159500D01*
X105139844Y-83174323D01*
X105139831Y-83174325D01*
X104875453Y-83233217D01*
X104875446Y-83233220D01*
X104622439Y-83329987D01*
X104386226Y-83462557D01*
X104171822Y-83628112D01*
X103983822Y-83823109D01*
X103983816Y-83823116D01*
X103826202Y-84043419D01*
X103826199Y-84043424D01*
X103702350Y-84284309D01*
X103702343Y-84284327D01*
X103614884Y-84540685D01*
X103614881Y-84540699D01*
X103565681Y-84807068D01*
X103565680Y-84807075D01*
X103555787Y-85077763D01*
X99060500Y-85077763D01*
X99060500Y-85010000D01*
X99070487Y-84743061D01*
X99073241Y-84672986D01*
X99078764Y-84532414D01*
X99079102Y-84527972D01*
X99107729Y-84273905D01*
X99134361Y-84048891D01*
X99135004Y-84044705D01*
X99181969Y-83796487D01*
X99226822Y-83570999D01*
X99227718Y-83567159D01*
X99292765Y-83324402D01*
X99306140Y-83276976D01*
X99355572Y-83101702D01*
X99356707Y-83098106D01*
X99439523Y-82861432D01*
X99519882Y-82643612D01*
X99521185Y-82640373D01*
X99621320Y-82410860D01*
X99718766Y-82199485D01*
X99720191Y-82196601D01*
X99837139Y-81975326D01*
X99951033Y-81771955D01*
X99952566Y-81769370D01*
X100085686Y-81557511D01*
X100215345Y-81363463D01*
X100216950Y-81361179D01*
X100365525Y-81159866D01*
X100510927Y-80975427D01*
X100674990Y-80784781D01*
X100834448Y-80612281D01*
X101012281Y-80434448D01*
X101184781Y-80274990D01*
X101375430Y-80110924D01*
X101559866Y-79965525D01*
X101761179Y-79816950D01*
X101763463Y-79815345D01*
X101957526Y-79685677D01*
X102169370Y-79552566D01*
X102171955Y-79551033D01*
X102375326Y-79437139D01*
X102596601Y-79320191D01*
X102599485Y-79318766D01*
X102810841Y-79221329D01*
X103040373Y-79121185D01*
X103043612Y-79119882D01*
X103261432Y-79039523D01*
X103498106Y-78956707D01*
X103501702Y-78955572D01*
X103724402Y-78892765D01*
X103737941Y-78889137D01*
X103967159Y-78827718D01*
X103970999Y-78826822D01*
X104196487Y-78781969D01*
X104444705Y-78735004D01*
X104448891Y-78734361D01*
X104673905Y-78707729D01*
X104927972Y-78679102D01*
X104932414Y-78678764D01*
X105142971Y-78670491D01*
X105410000Y-78660500D01*
X105410500Y-78660500D01*
X200659500Y-78660500D01*
X200660000Y-78660500D01*
X200926871Y-78670485D01*
G37*
%TD.AperFunction*%
%TD*%
M02*
