M48
; DRILL file {KiCad 7.0.7-7.0.7~ubuntu22.04.1} date Fri 27 Oct 2023 06:02:48 PM CDT
; FORMAT={-:-/ absolute / inch / decimal}
; #@! TF.CreationDate,2023-10-27T18:02:48-05:00
; #@! TF.GenerationSoftware,Kicad,Pcbnew,7.0.7-7.0.7~ubuntu22.04.1
; #@! TF.FileFunction,Plated,1,2,PTH
FMAT,2
INCH
; #@! TA.AperFunction,Plated,PTH,ViaDrill
T1C0.0157
; #@! TA.AperFunction,Plated,PTH,ComponentDrill
T2C0.0315
; #@! TA.AperFunction,Plated,PTH,ComponentDrill
T3C0.0394
; #@! TA.AperFunction,Plated,PTH,ComponentDrill
T4C0.0433
; #@! TA.AperFunction,Plated,PTH,ComponentDrill
T5C0.0472
; #@! TA.AperFunction,Plated,PTH,ComponentDrill
T6C0.0510
%
G90
G05
T1
X6.88Y-3.58
X7.08Y-3.88
T3
X6.6Y-3.6
X6.6Y-3.7969
X6.6Y-4.2
X6.6Y-4.3969
X7.7673Y-4.2696
T4
X4.8Y-3.4969
X4.8Y-3.8969
X4.8Y-4.1969
X4.8Y-4.5969
X7.0784Y-3.9969
X7.4784Y-3.9969
T5
X5.3Y-3.5016
X5.3Y-3.7969
X5.3Y-4.1969
X5.3Y-4.4921
X6.0Y-3.5016
X6.0Y-3.7969
X6.0Y-4.1969
X6.0Y-4.4921
X7.248Y-4.3146
X7.248Y-4.4146
X7.248Y-4.5146
X7.3Y-3.4933
X7.3Y-3.5933
X7.3Y-3.6933
T6
X7.7673Y-3.8696
X7.7673Y-4.0665
T2
G00X4.1069Y-3.7289
M15
G01X4.1069Y-3.7919
M16
G05
G00X4.5777Y-3.9596
M15
G01X4.5147Y-3.9596
M16
G05
G00X4.6434Y-3.7289
M15
G01X4.6434Y-3.7919
M16
G05
T0
M30
