%TF.GenerationSoftware,KiCad,Pcbnew,7.0.7-7.0.7~ubuntu22.04.1*%
%TF.CreationDate,2023-10-27T18:02:48-05:00*%
%TF.ProjectId,PSU,5053552e-6b69-4636-9164-5f7063625858,V1.0*%
%TF.SameCoordinates,Original*%
%TF.FileFunction,Soldermask,Top*%
%TF.FilePolarity,Negative*%
%FSLAX46Y46*%
G04 Gerber Fmt 4.6, Leading zero omitted, Abs format (unit mm)*
G04 Created by KiCad (PCBNEW 7.0.7-7.0.7~ubuntu22.04.1) date 2023-10-27 18:02:48*
%MOMM*%
%LPD*%
G01*
G04 APERTURE LIST*
G04 Aperture macros list*
%AMRoundRect*
0 Rectangle with rounded corners*
0 $1 Rounding radius*
0 $2 $3 $4 $5 $6 $7 $8 $9 X,Y pos of 4 corners*
0 Add a 4 corners polygon primitive as box body*
4,1,4,$2,$3,$4,$5,$6,$7,$8,$9,$2,$3,0*
0 Add four circle primitives for the rounded corners*
1,1,$1+$1,$2,$3*
1,1,$1+$1,$4,$5*
1,1,$1+$1,$6,$7*
1,1,$1+$1,$8,$9*
0 Add four rect primitives between the rounded corners*
20,1,$1+$1,$2,$3,$4,$5,0*
20,1,$1+$1,$4,$5,$6,$7,0*
20,1,$1+$1,$6,$7,$8,$9,0*
20,1,$1+$1,$8,$9,$2,$3,0*%
G04 Aperture macros list end*
%ADD10C,1.524000*%
%ADD11C,1.803400*%
%ADD12C,3.200000*%
%ADD13R,2.000000X1.905000*%
%ADD14O,2.000000X1.905000*%
%ADD15R,2.000000X2.000000*%
%ADD16C,2.000000*%
%ADD17RoundRect,0.250000X-0.925000X0.412500X-0.925000X-0.412500X0.925000X-0.412500X0.925000X0.412500X0*%
%ADD18R,2.400000X2.400000*%
%ADD19C,2.400000*%
%ADD20R,2.200000X2.200000*%
%ADD21O,2.200000X2.200000*%
%ADD22O,1.500000X3.200000*%
%ADD23O,3.200000X1.500000*%
%ADD24RoundRect,0.250000X0.925000X-0.412500X0.925000X0.412500X-0.925000X0.412500X-0.925000X-0.412500X0*%
G04 APERTURE END LIST*
D10*
%TO.C,J2*%
X197289553Y-108448601D03*
D11*
X197289553Y-98288601D03*
X197289553Y-103288601D03*
%TD*%
D12*
%TO.C,H1*%
X105410000Y-85010000D03*
%TD*%
D13*
%TO.C,U2*%
X184100373Y-109590025D03*
D14*
X184100373Y-112130025D03*
X184100373Y-114670025D03*
%TD*%
D12*
%TO.C,H2*%
X200660000Y-85010000D03*
%TD*%
D15*
%TO.C,C6*%
X167640000Y-96440000D03*
D16*
X167640000Y-91440000D03*
%TD*%
D15*
%TO.C,C5*%
X167640000Y-106680000D03*
D16*
X167640000Y-111680000D03*
%TD*%
D12*
%TO.C,H3*%
X105410000Y-116760000D03*
%TD*%
D17*
%TO.C,C10*%
X190641402Y-88755818D03*
X190641402Y-91830818D03*
%TD*%
%TO.C,C7*%
X179371029Y-109902702D03*
X179371029Y-112977702D03*
%TD*%
D18*
%TO.C,C4*%
X152400000Y-106600000D03*
D19*
X152400000Y-114100000D03*
%TD*%
D17*
%TO.C,C8*%
X190641402Y-109767567D03*
X190641402Y-112842567D03*
%TD*%
D20*
%TO.C,D1*%
X189950721Y-101520000D03*
D21*
X179790721Y-101520000D03*
%TD*%
D22*
%TO.C,J1*%
X117943600Y-95514483D03*
X104316122Y-95513631D03*
D23*
X115473355Y-100575055D03*
%TD*%
D18*
%TO.C,C2*%
X152400000Y-96440000D03*
D19*
X152400000Y-88940000D03*
%TD*%
D18*
%TO.C,C3*%
X134620000Y-106600000D03*
D19*
X134620000Y-114100000D03*
%TD*%
D18*
%TO.C,C1*%
X134620000Y-96440000D03*
D19*
X134620000Y-88940000D03*
%TD*%
D13*
%TO.C,LM7812*%
X185420000Y-93809770D03*
D14*
X185420000Y-91269770D03*
X185420000Y-88729770D03*
%TD*%
D20*
%TO.C,D2*%
X121920000Y-88820000D03*
D21*
X121920000Y-98980000D03*
%TD*%
D12*
%TO.C,H4*%
X200660000Y-116760000D03*
%TD*%
D24*
%TO.C,C9*%
X179291379Y-91854981D03*
X179291379Y-88779981D03*
%TD*%
D20*
%TO.C,D3*%
X121920000Y-106600000D03*
D21*
X121920000Y-116760000D03*
%TD*%
M02*
